<?xml version="1.0" encoding="UTF-8" standalone="no"?>
<svg
   width="91.523003"
   height="110"
   viewBox="0 0 22.285941 26.784032"
   version="1.1"
   id="svg900"
   sodipodi:docname="apple.svg"
   inkscape:version="1.2.2 (b0a8486541, 2022-12-01)"
   xmlns:inkscape="http://www.inkscape.org/namespaces/inkscape"
   xmlns:sodipodi="http://sodipodi.sourceforge.net/DTD/sodipodi-0.dtd"
   xmlns="http://www.w3.org/2000/svg"
   xmlns:svg="http://www.w3.org/2000/svg">
  <defs
     id="defs904" />
  <sodipodi:namedview
     id="namedview902"
     pagecolor="#505050"
     bordercolor="#eeeeee"
     borderopacity="1"
     inkscape:showpageshadow="0"
     inkscape:pageopacity="0"
     inkscape:pagecheckerboard="0"
     inkscape:deskcolor="#505050"
     showgrid="false"
     inkscape:zoom="4.98"
     inkscape:cx="40.66265"
     inkscape:cy="80.522088"
     inkscape:window-width="1320"
     inkscape:window-height="704"
     inkscape:window-x="0"
     inkscape:window-y="0"
     inkscape:window-maximized="1"
     inkscape:current-layer="svg900" />
  <path
     d="m 10.95284,2.1067784 c 1.599904,-2.10872468 3.824154,-2.11900509 3.824154,-2.11900509 0,0 0.330853,1.98255959 -1.258571,3.89239639 -1.697108,2.0392819 -3.6261056,1.7055885 -3.6261056,1.7055885 0,0 -0.3622146,-1.6038245 1.0605226,-3.4789798 z M 10.095806,6.974534 c 0.823073,0 2.350654,-1.1314055 4.339014,-1.1314055 3.422617,0 4.769071,2.4354178 4.769071,2.4354178 0,0 -2.633425,1.3464141 -2.633425,4.6134247 0,3.685468 3.280531,4.955599 3.280531,4.955599 0,0 -2.293212,6.45454 -5.390696,6.45454 -1.422657,0 -2.528702,-0.958719 -4.027682,-0.958719 -1.5275813,0 -3.0434822,0.99448 -4.0308018,0.99448 C 3.5733435,24.337951 0,18.215145 0,13.293427 0,8.4511533 3.0246015,5.9109712 5.8615555,5.9109712 c 1.844274,0 3.2754515,1.0635628 4.2342505,1.0635628 z"
     fill="#999999"
     id="path898"
     style="stroke-width:0.0400016" />
</svg>
