<?xml version="1.0" encoding="UTF-8" standalone="no"?>
<!-- Generator: Adobe Illustrator 19.2.0, SVG Export Plug-In . SVG Version: 6.00 Build 0)  -->

<svg
   version="1.1"
   id="Layer_1"
   x="0px"
   y="0px"
   viewBox="0 0 97.496003 110"
   xml:space="preserve"
   sodipodi:docname="bash_logo_colored.svg"
   width="97.496002"
   height="110"
   inkscape:version="1.2.2 (b0a8486541, 2022-12-01)"
   xmlns:inkscape="http://www.inkscape.org/namespaces/inkscape"
   xmlns:sodipodi="http://sodipodi.sourceforge.net/DTD/sodipodi-0.dtd"
   xmlns="http://www.w3.org/2000/svg"
   xmlns:svg="http://www.w3.org/2000/svg"><defs
   id="defs7032">
	
	

		<linearGradient
   id="SVGID_1_"
   gradientUnits="userSpaceOnUse"
   x1="0"
   y1="0"
   x2="0.70709997"
   y2="0.70709997">
			<stop
   offset="0"
   style="stop-color:#E6E6EA"
   id="stop6976" />
			<stop
   offset="0.1719"
   style="stop-color:#E2E2E6"
   id="stop6978" />
			<stop
   offset="0.3482"
   style="stop-color:#D7D6DA"
   id="stop6980" />
			<stop
   offset="0.5264"
   style="stop-color:#C4C2C5"
   id="stop6982" />
			<stop
   offset="0.7061"
   style="stop-color:#A9A7A8"
   id="stop6984" />
			<stop
   offset="0.8852"
   style="stop-color:#878484"
   id="stop6986" />
			<stop
   offset="1"
   style="stop-color:#6D6968"
   id="stop6988" />
		</linearGradient>
		
		
		
		
		
		
		
	
		
		
		
		
		
		
			
			
		
				
				
				
				
			
					
				
					
				
					
				
					
				</defs><sodipodi:namedview
   id="namedview7030"
   pagecolor="#505050"
   bordercolor="#eeeeee"
   borderopacity="1"
   inkscape:showpageshadow="0"
   inkscape:pageopacity="0"
   inkscape:pagecheckerboard="0"
   inkscape:deskcolor="#505050"
   showgrid="false"
   inkscape:zoom="4.9800001"
   inkscape:cx="43.674698"
   inkscape:cy="49.999999"
   inkscape:window-width="1320"
   inkscape:window-height="704"
   inkscape:window-x="0"
   inkscape:window-y="0"
   inkscape:window-maximized="1"
   inkscape:current-layer="Layer_1" />
<style
   type="text/css"
   id="style6974">
	.Drop_x0020_Shadow{fill:none;}
	.Round_x0020_Corners_x0020_2_x0020_pt{fill:#FFFFFF;stroke:#1B1B1F;stroke-miterlimit:10;}
	.Live_x0020_Reflect_x0020_X{fill:none;}
	.Bevel_x0020_Soft{fill:url(#SVGID_1_);}
	.Dusk{fill:#FFFFFF;}
	.Foliage_GS{fill:#FFDC00;}
	.Pompadour_GS{fill-rule:evenodd;clip-rule:evenodd;fill:#58AEE2;}
	.st0{fill:none;}
	.st1{fill:#FFFFFF;}
	.st2{fill:#283037;}
	.st3{fill:#4DA825;}
</style>


<g
   id="g7228"
   transform="scale(0.19530296)"><path
     class="st1"
     d="m 416.8,104.625 -161.6,-96 c -19.3,-11.5 -43.1,-11.5 -62.4,0 l -161.6,96 c -19.3,11.4 -31.2,32.6 -31.2,55.5 v 191.9 c 0,22.9 11.9,44.1 31.2,55.5 l 161.6,95.9 c 9.6,5.7 20.4,8.6 31.2,8.6 10.8,0 21.5,-2.9 31.2,-8.6 l 161.6,-95.9 c 19.3,-11.5 31.2,-32.6 31.2,-55.5 v -191.9 c 0,-22.9 -11.9,-44.1 -31.2,-55.5 z"
     id="path6993"
     style="fill:#ffffff" /><path
     class="st2"
     d="m 416.8,104.625 -161.6,-96 c -9.6,-5.7 -20.4,-8.6 -31.2,-8.6 -10.8,0 -21.5,2.9 -31.2,8.6 l -161.6,96 c -19.3,11.4 -31.2,32.6 -31.2,55.5 v 191.9 c 0,22.9 11.9,44.1 31.2,55.5 l 161.6,95.9 c 9.6,5.7 20.4,8.6 31.2,8.6 10.8,0 21.5,-2.9 31.2,-8.6 l 161.6,-95.9 c 19.3,-11.5 31.2,-32.6 31.2,-55.5 v -191.9 c 0,-22.9 -11.9,-44.1 -31.2,-55.5 z m -218.3,389 -161.6,-95.9 c -15.8,-9.4 -25.6,-26.9 -25.6,-45.7 v -191.9 c 0,-18.8 9.8,-36.3 25.6,-45.7 l 161.6,-95.9 c 7.8,-4.6 16.6,-7 25.5,-7 8.9,0 17.8,2.4 25.5,7 l 161.6,95.9 c 13.3,7.9 22.3,21.6 24.8,37 -5.4,-11.4 -17.4,-14.6 -31.5,-6.3 l -152.9,94.5 c -19.1,11.1 -33.1,23.7 -33.1,46.6 v 188.4 c 0,13.8 5.5,22.7 14.1,25.3 -2.8,0.5 -5.6,0.8 -8.5,0.8 -8.9,-0.1 -17.8,-2.5 -25.5,-7.1 z"
     id="path6997"
     style="fill:#283037" /><path
     class="st3"
     d="m 374.5,370.525 -40.3,24.1 c -1.1,0.6 -1.9,1.3 -1.9,2.6 v 10.5 c 0,1.3 0.9,1.8 1.9,1.2 l 40.9,-24.8 c 1.1,-0.6 1.2,-1.8 1.2,-3.1 v -9.3 c 0.1,-1.3 -0.8,-1.8 -1.8,-1.2 z"
     id="path7001"
     style="fill:#4da825" /><path
     class="st1"
     d="m 288.8,281.925 c 1.3,-0.7 2.4,0.2 2.4,1.9 l 0.1,13.9 c 5.8,-2.3 10.9,-2.9 15.5,-1.9 1,0.3 1.4,1.6 1,3.2 l -3.1,12.3 c -0.2,0.9 -0.8,1.9 -1.4,2.5 -0.3,0.3 -0.5,0.5 -0.8,0.6 -0.4,0.2 -0.8,0.3 -1.2,0.2 -2.1,-0.5 -7.1,-1.6 -14.9,2.4 -8.2,4.2 -11.1,11.3 -11,16.6 0.1,6.3 3.3,8.3 14.5,8.4 14.9,0.2 21.4,6.8 21.5,21.8 0.2,14.8 -7.7,30.6 -19.8,40.4 l 0.3,13.8 c 0,1.7 -1.1,3.6 -2.4,4.2 l -8.2,4.7 c -1.3,0.7 -2.4,-0.1 -2.4,-1.8 l -0.1,-13.6 c -7,2.9 -14.1,3.6 -18.6,1.8 -0.9,-0.3 -1.2,-1.6 -0.9,-3 l 3,-12.5 c 0.2,-1 0.8,-2 1.5,-2.6 0.3,-0.2 0.5,-0.4 0.8,-0.6 0.5,-0.2 0.9,-0.3 1.3,-0.1 4.9,1.6 11.1,0.9 17.1,-2.2 7.6,-3.9 12.7,-11.6 12.6,-19.4 -0.1,-7 -3.9,-9.9 -13.1,-10 -11.7,0 -22.7,-2.3 -22.9,-19.6 -0.1,-14.2 7.3,-29 19,-38.4 l -0.1,-13.9 c 0,-1.7 1,-3.6 2.4,-4.3 z"
     id="path7005"
     style="fill:#ffffff" /></g></svg>
