<?xml version="1.0" encoding="UTF-8" standalone="no"?>
<svg
   height="96"
   viewBox="0 0 96 96"
   width="96"
   version="1.1"
   id="svg5543"
   sodipodi:docname="clion_icon.svg"
   inkscape:version="1.2.2 (b0a8486541, 2022-12-01)"
   xmlns:inkscape="http://www.inkscape.org/namespaces/inkscape"
   xmlns:sodipodi="http://sodipodi.sourceforge.net/DTD/sodipodi-0.dtd"
   xmlns:xlink="http://www.w3.org/1999/xlink"
   xmlns="http://www.w3.org/2000/svg"
   xmlns:svg="http://www.w3.org/2000/svg">
  <defs
     id="defs5547">
    <linearGradient
       inkscape:collect="always"
       xlink:href="#b"
       id="linearGradient5677"
       gradientUnits="userSpaceOnUse"
       x1="27.99"
       y1="16.68"
       x2="13.87"
       y2="111.42" />
  </defs>
  <sodipodi:namedview
     id="namedview5545"
     pagecolor="#505050"
     bordercolor="#eeeeee"
     borderopacity="1"
     inkscape:showpageshadow="0"
     inkscape:pageopacity="0"
     inkscape:pagecheckerboard="0"
     inkscape:deskcolor="#505050"
     showgrid="false"
     inkscape:zoom="4.5047619"
     inkscape:cx="48.282241"
     inkscape:cy="48.171247"
     inkscape:window-width="1320"
     inkscape:window-height="704"
     inkscape:window-x="0"
     inkscape:window-y="0"
     inkscape:window-maximized="1"
     inkscape:current-layer="svg5543" />
  <linearGradient
     id="a"
     gradientUnits="userSpaceOnUse"
     x1="39.009998"
     x2="66.510002"
     y1="23.27"
     y2="23.27">
    <stop
       offset="0"
       stop-color="#ff318c"
       id="stop5499" />
    <stop
       offset=".15"
       stop-color="#fb348c"
       id="stop5501" />
    <stop
       offset=".28"
       stop-color="#f03c8c"
       id="stop5503" />
    <stop
       offset=".42"
       stop-color="#de4a8c"
       id="stop5505" />
    <stop
       offset=".54"
       stop-color="#c45d8b"
       id="stop5507" />
    <stop
       offset=".67"
       stop-color="#a2778b"
       id="stop5509" />
    <stop
       offset=".79"
       stop-color="#79958a"
       id="stop5511" />
    <stop
       offset=".91"
       stop-color="#49b98a"
       id="stop5513" />
    <stop
       offset="1"
       stop-color="#21d789"
       id="stop5515" />
  </linearGradient>
  <linearGradient
     id="b"
     gradientUnits="userSpaceOnUse"
     x1="27.99"
     x2="13.87"
     y1="16.68"
     y2="111.42">
    <stop
       offset=".09"
       stop-color="#21d789"
       id="stop5518" />
    <stop
       offset=".9"
       stop-color="#009ae5"
       id="stop5520" />
  </linearGradient>
  <linearGradient
     id="c"
     x1="92.050003"
     x2="-4.5300002"
     xlink:href="#b"
     y1="13.4"
     y2="115.4" />
  <linearGradient
     id="d"
     x1="62.84"
     x2="95.870003"
     xlink:href="#b"
     y1="77.019997"
     y2="81.720001" />
  <g
     id="g5675"
     transform="translate(-4.5,-4.5)">
    <path
       d="M 39.01,42.04 41.09,4.5 62.92,16.6 Z"
       fill="url(#a)"
       id="path5525"
       style="fill:url(#a)" />
    <path
       d="M 39.01,42.04 41.09,4.5 13.37,21.97 4.5,75.08 Z"
       fill="url(#b)"
       id="path5527"
       style="fill:url(#linearGradient5677)" />
    <path
       d="M 98.59,33.27 86.24,8.16 62.92,16.6 39.01,42.04 4.5,75.08 35.63,97.74 74.76,62.45 Z"
       fill="url(#c)"
       id="path5529"
       style="fill:url(#c)" />
    <path
       d="M 82.5,59.54 V 82.5 H 44.8 l 16.57,12.82 24,5.18 15.13,-34.25 z"
       fill="url(#d)"
       id="path5531"
       style="fill:url(#d)" />
    <path
       d="m 22.5,22.5 h 60 v 60 h -60 z"
       id="path5533" />
    <g
       fill="#ffffff"
       id="g5541">
      <path
         d="m 29.98,71.16 h 22.5 v 3.75 h -22.5 z"
         id="path5535" />
      <path
         d="m 52.55,29.94 h 5 V 48.33 H 67.4 V 52.5 H 52.55 Z"
         id="path5537" />
      <path
         d="m 28.38,41.37 v -0.06 a 11.54,11.54 0 0 1 11.83,-11.74 11.71,11.71 0 0 1 8.94,3.5 L 46,36.74 a 8.38,8.38 0 0 0 -5.81,-2.56 c -3.82,0 -6.57,3.17 -6.57,7.06 v 0.07 c 0,3.89 2.69,7.13 6.57,7.13 2.6,0 4.18,-1 6,-2.66 L 49.31,49 A 11.6,11.6 0 0 1 40,53 11.45,11.45 0 0 1 28.38,41.37"
         id="path5539" />
    </g>
  </g>
</svg>
