<?xml version="1.0" encoding="UTF-8" standalone="no"?>
<!-- Generator: Adobe Illustrator 27.1.1, SVG Export Plug-In . SVG Version: 6.00 Build 0)  -->

<svg
   version="1.1"
   id="Layer_1"
   x="0px"
   y="0px"
   viewBox="0 0 152.214 110"
   xml:space="preserve"
   sodipodi:docname="01-symbol_primary-blue-docker-logo.svg"
   width="152.214"
   height="110"
   inkscape:version="1.2.2 (b0a8486541, 2022-12-01)"
   xmlns:inkscape="http://www.inkscape.org/namespaces/inkscape"
   xmlns:sodipodi="http://sodipodi.sourceforge.net/DTD/sodipodi-0.dtd"
   xmlns="http://www.w3.org/2000/svg"
   xmlns:svg="http://www.w3.org/2000/svg"><defs
   id="defs9" /><sodipodi:namedview
   id="namedview7"
   pagecolor="#505050"
   bordercolor="#eeeeee"
   borderopacity="1"
   inkscape:showpageshadow="0"
   inkscape:pageopacity="0"
   inkscape:pagecheckerboard="0"
   inkscape:deskcolor="#505050"
   showgrid="false"
   inkscape:zoom="1.5307443"
   inkscape:cx="86.559197"
   inkscape:cy="36.910148"
   inkscape:window-width="1314"
   inkscape:window-height="679"
   inkscape:window-x="26"
   inkscape:window-y="23"
   inkscape:window-maximized="0"
   inkscape:current-layer="Layer_1" />
<style
   type="text/css"
   id="style2">
	.st0{fill:#1D63ED;}
</style>
<path
   class="st0"
   d="m 122.97216,36.183997 c -0.74506,-5.409783 -3.7253,-10.106899 -9.10269,-14.350502 l -3.10981,-2.105604 -2.07321,3.142209 c -2.6563,4.049239 -3.98445,9.685779 -3.56333,15.095562 0.19436,1.878847 0.80984,5.312602 2.72109,8.260447 -1.91125,1.069 -5.70133,2.494332 -10.754779,2.39715 H 0.55557933 L 0.36121587,49.757046 C -0.54581361,55.166829 -0.54581361,72.108844 10.306146,85.098801 18.566593,94.978944 30.908673,100 47.04084,100 c 34.985422,0 60.83576,-16.294137 72.98348,-45.966958 4.7619,0.09718 15.03077,0.03239 20.31098,-10.171688 0.12957,-0.226757 0.45351,-0.842242 1.36054,-2.785876 l 0.5183,-1.068999 -2.94784,-2.008423 c -3.23939,-2.105604 -10.59281,-2.915452 -16.29414,-1.814059 z M 77.750266,0 H 63.075825 v 13.50826 h 14.674441 z m 0,16.229349 H 63.075825 v 13.50826 h 14.674441 z m -17.363135,0 H 45.712689 v 13.50826 h 14.674442 z m -17.330742,0 H 28.381948 v 13.50826 H 43.056389 Z M 25.693253,32.458698 H 11.018812 v 13.50826 h 14.674441 z m 17.363136,0 H 28.381948 v 13.50826 h 14.674441 z m 17.330742,0 H 45.712689 v 13.50826 h 14.674442 z m 17.363135,0 H 63.075825 v 13.50826 h 14.674441 z m 17.363136,0 H 80.438961 v 13.50826 h 14.674441 z"
   id="path4"
   style="stroke-width:0.323939" />
</svg>
