<?xml version="1.0" encoding="UTF-8" standalone="no"?>
<svg
   viewBox="0 0 105.562 110.09"
   version="1.1"
   id="svg530"
   sodipodi:docname="gentoo-plain.svg"
   width="105.562"
   height="110.09"
   inkscape:version="1.2.2 (b0a8486541, 2022-12-01)"
   xmlns:inkscape="http://www.inkscape.org/namespaces/inkscape"
   xmlns:sodipodi="http://sodipodi.sourceforge.net/DTD/sodipodi-0.dtd"
   xmlns="http://www.w3.org/2000/svg"
   xmlns:svg="http://www.w3.org/2000/svg">
  <defs
     id="defs534" />
  <sodipodi:namedview
     id="namedview532"
     pagecolor="#505050"
     bordercolor="#eeeeee"
     borderopacity="1"
     inkscape:showpageshadow="0"
     inkscape:pageopacity="0"
     inkscape:pagecheckerboard="0"
     inkscape:deskcolor="#505050"
     showgrid="false"
     inkscape:zoom="3.6953125"
     inkscape:cx="54.257928"
     inkscape:cy="57.911205"
     inkscape:window-width="1320"
     inkscape:window-height="704"
     inkscape:window-x="0"
     inkscape:window-y="0"
     inkscape:window-maximized="1"
     inkscape:current-layer="svg530" />
  <path
     d="M 39.88446,0.04749851 C 31.897121,-0.06357249 22.907476,3.2125784 15.674531,8.9402886 8.0381764,14.986107 2.7236504,23.160046 2.0056874,29.973587 c -0.236359,2.2463 0.232805,4.553912 1.40216,6.918392 0.781052,1.572765 1.562103,2.640824 2.950047,4.029656 2.567962,2.567962 5.2932006,4.30067 13.0335176,8.28501 2.829201,1.454586 3.763086,1.95485 3.763086,2.009941 0,0.01333 -0.496709,0.444284 -1.097381,0.954323 -6.122235,5.182129 -11.551387,10.225642 -14.3521536,13.335631 -4.060756,4.505041 -6.86596601,9.260658 -7.52528401,12.748288 -0.159942,0.840585 -0.183933,4.17627 -0.03821,5.502014 0.22925,2.113904 0.704634,3.748869 1.61719401,5.542888 1.108044,2.186766 2.184101,3.654681 3.856386,5.272762 3.433427,3.32147 7.3271326,5.01863 12.4781626,5.448698 0.892122,0.0729 4.234916,-0.0346 5.238109,-0.166158 5.907202,-0.79083 13.015747,-3.25571 20.957769,-7.26138 15.803186,-7.973122 34.400918,-21.981399 45.181027,-34.029495 2.097021,-2.343155 4.151391,-5.098605 4.773391,-6.406577 0.86369,-1.812679 1.27332,-4.026991 1.27332,-6.911283 0.004,-2.596396 -0.32877,-4.491712 -1.11071,-6.299949 C 90.841178,30.640013 76.541452,16.916077 62.111993,7.9442036 58.617254,5.7707666 53.874966,3.2818867 51.33455,2.2858018 48.211232,1.0604663 45.121681,0.38071161 41.467,0.11680681 c -0.520701,-0.038208 -1.048511,-0.0622 -1.58254,-0.0693083 z m -0.302113,0.2256963 c 1.280427,0.00355 2.551079,0.055091 3.408547,0.1599423 4.106074,0.4993753 7.452422,1.54788579 11.284816,3.53650149 9.440149,4.900453 21.890766,14.2899534 30.126905,22.7135804 5.717043,5.85211 9.052733,10.840532 9.399273,14.067811 0.35099,3.259268 -1.95396,7.723435 -6.910394,13.380949 -1.322189,1.510565 -5.677951,5.834338 -7.538612,7.483521 C 65.940833,73.509874 48.661737,84.158475 34.483743,89.265076 a 64.454959,64.454959 0 0 1 -14.554747,3.422765 c -1.460806,0.17327 -4.771611,0.246133 -5.820122,0.127953 -1.985061,-0.218587 -3.401439,-0.60778 -4.8835706,-1.33996 -1.909533,-0.940105 -3.381002,-2.245412 -4.616111,-4.091857 a 18.356042,18.356042 0 0 1 -2.738567,-6.699804 c -0.232805,-1.207564 -0.212368,-3.293034 0.04087,-4.585012 0.580235,-2.946492 2.106795,-5.806793 4.88357,-9.148698 3.083332,-3.714215 9.7538126,-9.919975 20.0549836,-18.659932 l 1.235999,-1.04851 -0.339433,-0.173271 C 27.559131,46.974562 26.600366,46.555158 25.614944,46.134865 16.545328,42.27137 10.523501,38.731315 6.9310204,35.148608 5.3138264,33.537634 4.2928614,32.000411 3.8103694,30.441862 3.2514594,28.646954 3.5953354,25.800871 4.7096004,22.992995 6.6777784,18.029453 11.193482,12.496339 16.607528,8.4186996 c 5.946298,-4.48105 12.572351,-7.1991796 19.4863,-7.99089389 0.909894,-0.1039625 2.203649,-0.1554994 3.488519,-0.1554994 z M 38.388111,2.5390437 c -1.061839,0.031989 -2.183212,0.1252881 -3.401439,0.2745676 -6.161332,0.7570601 -9.118487,1.8260073 -13.568436,4.9048963 -1.64474,1.137367 -5.605088,4.1229564 -6.504319,4.9048964 -3.689335,3.198846 -6.7060236,7.413325 -7.9864506,11.144423 -0.808597,2.360037 -0.932997,3.971011 -0.430067,5.47358 0.499375,1.496348 1.46436,2.492433 4.2517986,4.401078 3.314359,2.273846 7.132537,4.276678 16.136398,8.47694 4.682754,2.182324 5.127038,2.429346 5.324301,2.946492 0.236359,0.628218 -0.03466,1.38439 -0.877906,2.436454 -0.829922,1.037848 -1.874879,1.99217 -6.570961,6.015607 -6.626053,5.677951 -9.058953,7.8816 -11.682895,10.56863 -4.5370286,4.640992 -6.8935116,8.208593 -7.4417586,11.270599 -0.451392,2.505762 0.204371,5.699276 1.624303,7.899371 1.746037,2.711021 4.3353236,4.162053 8.1010756,4.540583 4.977759,0.495821 12.46128,-0.892122 18.986037,-3.530281 C 46.114212,79.511263 62.563386,68.800462 74.64969,58.018576 80.452929,52.840889 86.905711,46.162411 88.131047,44.062724 88.488251,43.447835 88.737939,41.987029 88.681959,40.831001 88.613539,39.324878 88.245672,38.203505 87.26647,36.499232 85.649276,33.684248 83.330113,30.821281 79.154731,26.475294 73.733576,20.838217 67.714416,15.714733 62.022248,11.900998 57.266631,8.7145926 51.015554,5.3717986 47.298673,4.0282836 44.215341,2.9140195 41.570962,2.4492983 38.388111,2.5390437 Z m 4.974205,15.0159143 c 0.812151,0.01333 1.655402,0.09774 2.360037,0.242579 6.185323,1.28487 11.839282,5.502014 13.179243,9.823121 0.309222,0.999639 0.295005,2.474663 -0.03465,3.387222 a 8.2325842,8.2325842 0 0 1 -0.531364,1.164024 c -0.447838,0.759726 -1.859773,2.14145 -2.849638,2.793659 -1.706939,1.11693 -4.265127,2.239192 -5.494017,2.40802 -0.385638,0.05598 -0.808597,0.09419 -0.940994,0.08708 -3.984339,-0.197262 -8.860802,-2.301391 -11.634911,-5.018633 -1.857108,-1.815345 -2.616834,-3.502736 -2.491546,-5.52956 0.319885,-5.151029 2.51998,-8.379198 6.275069,-9.194903 0.573126,-0.1244 1.350624,-0.176825 2.162775,-0.162608 z m 0.863688,5.779247 c -1.17291,0.02044 -2.103241,0.326105 -2.603505,0.930331 -0.304779,0.371422 -0.922333,1.581652 -1.131147,2.214312 -0.530475,1.61364 -0.308333,3.088663 0.666426,4.383307 0.250576,0.329659 0.611335,0.72596 0.805932,0.882348 l 0.357204,0.280788 0.271013,-0.229251 c 0.382085,-0.32255 0.846806,-0.422958 1.919308,-0.419404 0.968539,0 1.773582,0.100408 2.689695,0.32877 2.061479,0.514481 3.585373,1.267098 4.002112,1.972622 0.159942,0.26657 0.19815,0.287896 0.371421,0.193707 0.107517,-0.05509 0.538472,-0.447838 0.961431,-0.870796 0.857468,-0.857469 1.356843,-1.718491 1.52034,-2.627497 0.357204,-1.968178 -1.443923,-4.249133 -4.519258,-5.717047 -1.895316,-0.902785 -3.800406,-1.350624 -5.310972,-1.32219 z m 0,0"
     fill="#9991d9"
     stroke-width="0.0895232"
     stroke="#9991d9"
     id="path528" />
</svg>
