<?xml version="1.0" encoding="UTF-8" standalone="no"?>
<svg
   viewBox="0 0 110.001 110"
   version="1.1"
   id="svg3976"
   sodipodi:docname="git-original.svg"
   width="110.001"
   height="110"
   inkscape:version="1.2.2 (b0a8486541, 2022-12-01)"
   xmlns:inkscape="http://www.inkscape.org/namespaces/inkscape"
   xmlns:sodipodi="http://sodipodi.sourceforge.net/DTD/sodipodi-0.dtd"
   xmlns="http://www.w3.org/2000/svg"
   xmlns:svg="http://www.w3.org/2000/svg">
  <defs
     id="defs3980" />
  <sodipodi:namedview
     id="namedview3978"
     pagecolor="#505050"
     bordercolor="#eeeeee"
     borderopacity="1"
     inkscape:showpageshadow="0"
     inkscape:pageopacity="0"
     inkscape:pagecheckerboard="0"
     inkscape:deskcolor="#505050"
     showgrid="false"
     inkscape:zoom="3.6953125"
     inkscape:cx="63.458774"
     inkscape:cy="63.323467"
     inkscape:window-width="1320"
     inkscape:window-height="704"
     inkscape:window-x="0"
     inkscape:window-y="0"
     inkscape:window-maximized="1"
     inkscape:current-layer="svg3976" />
  <path
     fill="#f34f29"
     d="M 98.114773,45.54597 54.453002,1.8857835 c -2.512794,-2.514378 -6.590935,-2.514378 -9.107689,0 l -9.065704,9.0672875 11.500864,11.500864 c 2.673606,-0.902293 5.737757,-0.297068 7.867928,1.833103 2.141261,2.143638 2.741733,5.233931 1.81726,7.916251 l 11.084177,11.084969 c 2.681528,-0.924473 5.776573,-0.32717 7.917043,1.818053 2.994439,2.992062 2.994439,7.842578 0,10.836224 a 7.6627533,7.6627533 0 0 1 -10.839394,0 7.665922,7.665922 0 0 1 -1.667538,-8.334521 l -10.336359,-10.33636 -0.0016,27.20424 a 7.6904796,7.6904796 0 0 1 2.027188,1.448104 c 2.992854,2.992063 2.992854,7.840994 0,10.839394 -2.993647,2.992062 -7.845747,2.992062 -10.836225,0 -2.992854,-2.997608 -2.992854,-7.846539 0,-10.839394 a 7.6445332,7.6445332 0 0 1 2.508833,-1.671499 V 36.796346 a 7.5898728,7.5898728 0 0 1 -2.508833,-1.672291 c -2.267218,-2.265633 -2.81303,-5.592788 -1.65011,-8.378091 L 31.824391,15.407497 1.8863393,45.343964 a 6.4427967,6.4427967 0 0 0 0,9.110066 L 45.548903,98.114216 c 2.514378,2.514374 6.590934,2.514374 9.109273,0 L 98.115565,54.656828 a 6.4443811,6.4443811 0 0 0 -7.92e-4,-9.110858 z"
     id="path3974"
     style="stroke-width:0.79218" />
</svg>
