<?xml version="1.0" encoding="UTF-8" standalone="no"?>
<svg
   width="111.695"
   height="110"
   version="1.1"
   id="svg3840"
   sodipodi:docname="github-mark-white.svg"
   inkscape:version="1.2.2 (b0a8486541, 2022-12-01)"
   xmlns:inkscape="http://www.inkscape.org/namespaces/inkscape"
   xmlns:sodipodi="http://sodipodi.sourceforge.net/DTD/sodipodi-0.dtd"
   xmlns="http://www.w3.org/2000/svg"
   xmlns:svg="http://www.w3.org/2000/svg">
  <defs
     id="defs3844" />
  <sodipodi:namedview
     id="namedview3842"
     pagecolor="#505050"
     bordercolor="#eeeeee"
     borderopacity="1"
     inkscape:showpageshadow="0"
     inkscape:pageopacity="0"
     inkscape:pagecheckerboard="0"
     inkscape:deskcolor="#505050"
     showgrid="false"
     inkscape:zoom="4.98"
     inkscape:cx="50.702811"
     inkscape:cy="50.200803"
     inkscape:window-width="1320"
     inkscape:window-height="704"
     inkscape:window-x="0"
     inkscape:window-y="0"
     inkscape:window-maximized="1"
     inkscape:current-layer="svg3840" />
  <path
     fill-rule="evenodd"
     clip-rule="evenodd"
     d="M 50.889371,0 C 22.748863,0 0,22.916571 0,51.267494 c 0,22.662405 14.575981,41.845658 34.796729,48.635213 2.528115,0.510413 3.454153,-1.10312 3.454153,-2.460406 0,-1.188537 -0.08333,-5.262478 -0.08333,-9.507252 -14.156191,3.056237 -17.104095,-6.111433 -17.104095,-6.111433 -2.274991,-5.941642 -5.64581,-7.468719 -5.64581,-7.468719 -4.633314,-3.140611 0.337498,-3.140611 0.337498,-3.140611 5.139562,0.339581 7.836426,5.262478 7.836426,5.262478 4.548939,7.8083 11.879117,5.602059 14.828063,4.243732 0.420832,-3.310403 1.769784,-5.60206 3.20207,-6.874971 -11.290578,-1.188537 -23.169695,-5.60206 -23.169695,-25.294686 0,-5.60206 2.020825,-10.185374 5.222895,-13.749943 -0.505206,-1.272911 -2.27499,-6.536431 0.506248,-13.581193 0,0 4.296857,-1.358328 13.985358,5.262478 a 48.926879,48.926879 0 0 1 12.722864,-1.69791 c 4.296857,0 8.677047,0.59479 12.721821,1.69791 9.689543,-6.620806 13.9864,-5.262478 13.9864,-5.262478 2.781239,7.044762 1.010413,12.308282 0.505206,13.581193 3.286445,3.564569 5.223937,8.147883 5.223937,13.749943 0,19.692626 -11.879117,24.020733 -23.25407,25.294686 1.854159,1.612493 3.454153,4.667688 3.454153,9.50621 0,6.874971 -0.08333,12.392656 -0.08333,14.089524 0,1.358328 0.927079,2.971861 3.454152,2.46249 C 87.118386,93.112111 101.69437,73.929899 101.69437,51.267494 101.7777,22.916571 78.945503,0 50.889371,0 Z"
     fill="#ffffff"
     id="path3838"
     style="stroke-width:1.042;stroke-dasharray:none;fill:#ffffff;fill-opacity:1" />
</svg>
