<?xml version="1.0" encoding="UTF-8" standalone="no"?>
<svg
   height="110"
   viewBox="0 0 110 110"
   width="110"
   version="1.1"
   id="svg7376"
   sodipodi:docname="intellij_idea_icon.svg"
   inkscape:version="1.2.2 (b0a8486541, 2022-12-01)"
   xmlns:inkscape="http://www.inkscape.org/namespaces/inkscape"
   xmlns:sodipodi="http://sodipodi.sourceforge.net/DTD/sodipodi-0.dtd"
   xmlns="http://www.w3.org/2000/svg"
   xmlns:svg="http://www.w3.org/2000/svg">
  <defs
     id="defs7380" />
  <sodipodi:namedview
     id="namedview7378"
     pagecolor="#505050"
     bordercolor="#eeeeee"
     borderopacity="1"
     inkscape:showpageshadow="0"
     inkscape:pageopacity="0"
     inkscape:pagecheckerboard="0"
     inkscape:deskcolor="#505050"
     showgrid="false"
     inkscape:zoom="4.5047619"
     inkscape:cx="82.024313"
     inkscape:cy="105.88795"
     inkscape:window-width="1320"
     inkscape:window-height="704"
     inkscape:window-x="0"
     inkscape:window-y="0"
     inkscape:window-maximized="1"
     inkscape:current-layer="svg7376" />
  <linearGradient
     id="a"
     gradientUnits="userSpaceOnUse"
     x1="11.16"
     x2="58.939999"
     y1="59.209999"
     y2="56.779999">
    <stop
       offset=".09"
       stop-color="#fc801d"
       id="stop7309" />
    <stop
       offset=".23"
       stop-color="#b07f61"
       id="stop7311" />
    <stop
       offset=".41"
       stop-color="#577db3"
       id="stop7313" />
    <stop
       offset=".53"
       stop-color="#1e7ce6"
       id="stop7315" />
    <stop
       offset=".59"
       stop-color="#087cfa"
       id="stop7317" />
  </linearGradient>
  <linearGradient
     id="b"
     gradientUnits="userSpaceOnUse"
     x1="89.050003"
     x2="73.120003"
     y1="54.119999"
     y2="6.52">
    <stop
       offset="0"
       stop-color="#fe2857"
       id="stop7320" />
    <stop
       offset=".08"
       stop-color="#cb3979"
       id="stop7322" />
    <stop
       offset=".16"
       stop-color="#9e4997"
       id="stop7324" />
    <stop
       offset=".25"
       stop-color="#7557b2"
       id="stop7326" />
    <stop
       offset=".34"
       stop-color="#5362c8"
       id="stop7328" />
    <stop
       offset=".44"
       stop-color="#386cda"
       id="stop7330" />
    <stop
       offset=".54"
       stop-color="#2373e8"
       id="stop7332" />
    <stop
       offset=".66"
       stop-color="#1478f2"
       id="stop7334" />
    <stop
       offset=".79"
       stop-color="#0b7bf8"
       id="stop7336" />
    <stop
       offset="1"
       stop-color="#087cfa"
       id="stop7338" />
  </linearGradient>
  <linearGradient
     id="c"
     gradientUnits="userSpaceOnUse"
     x1="18.719999"
     x2="78.800003"
     y1="26.610001"
     y2="125.99">
    <stop
       offset="0"
       stop-color="#fe2857"
       id="stop7341" />
    <stop
       offset=".08"
       stop-color="#fe295f"
       id="stop7343" />
    <stop
       offset=".21"
       stop-color="#ff2d76"
       id="stop7345" />
    <stop
       offset=".3"
       stop-color="#ff318c"
       id="stop7347" />
    <stop
       offset=".38"
       stop-color="#ea3896"
       id="stop7349" />
    <stop
       offset=".55"
       stop-color="#b248ae"
       id="stop7351" />
    <stop
       offset=".79"
       stop-color="#5a63d6"
       id="stop7353" />
    <stop
       offset="1"
       stop-color="#087cfa"
       id="stop7355" />
  </linearGradient>
  <g
     id="g7508"
     transform="matrix(1.0416667,0,0,1.0416667,-4.2395835,-4.6875001)">
    <path
       d="M 19.27,72.21 5.15,61.06 13.46,45.67 25.95,49.85 Z"
       fill="url(#a)"
       id="path7358"
       style="fill:url(#a)" />
    <path
       d="M 100.07,30.09 98.34,85.69 61.36,100.5 41.22,87.5 Z"
       fill="#087cfa"
       id="path7360" />
    <path
       d="M 100.07,30.09 81.77,47.94 58.27,19.11 69.87,6.07 Z"
       fill="url(#b)"
       id="path7362"
       style="fill:url(#b)" />
    <path
       d="M 41.22,87.5 11.81,98.13 17.97,76.56 25.95,49.85 4.07,42.53 17.97,4.5 49.39,8.21 81.77,47.94 Z"
       fill="url(#c)"
       id="path7364"
       style="fill:url(#c)" />
    <path
       d="m 22.5,22.5 h 60 v 60 h -60 z"
       id="path7366" />
    <g
       fill="#ffffff"
       id="g7374">
      <path
         d="m 29.98,71.16 h 22.5 v 3.75 h -22.5 z"
         id="path7368" />
      <path
         d="m 41.21,34.12 v -4.1 H 30.02 v 4.1 h 3.14 v 14.16 h -3.14 v 4.1 h 11.19 v -4.1 H 38.08 V 34.12 Z"
         id="path7370" />
      <path
         d="m 51.94,52.7 a 8.88,8.88 0 0 1 -4.39,-1 10.16,10.16 0 0 1 -2.92,-2.36 l 3.09,-3.45 a 8.86,8.86 0 0 0 1.94,1.64 4,4 0 0 0 2.15,0.6 2.85,2.85 0 0 0 2.19,-0.87 4.16,4.16 0 0 0 0.8,-2.83 V 30 h 5 v 14.65 a 10.14,10.14 0 0 1 -0.55,3.49 6.49,6.49 0 0 1 -4.07,4 9.87,9.87 0 0 1 -3.31,0.52"
         id="path7372" />
    </g>
  </g>
</svg>
