<?xml version="1.0" encoding="UTF-8" standalone="no"?>
<svg
   viewBox="0 0 85.847 110"
   version="1.1"
   id="svg10"
   sodipodi:docname="jupyter-original.svg"
   width="85.847"
   height="110"
   inkscape:version="1.2.2 (b0a8486541, 2022-12-01)"
   xmlns:inkscape="http://www.inkscape.org/namespaces/inkscape"
   xmlns:sodipodi="http://sodipodi.sourceforge.net/DTD/sodipodi-0.dtd"
   xmlns="http://www.w3.org/2000/svg"
   xmlns:svg="http://www.w3.org/2000/svg">
  <defs
     id="defs14" />
  <sodipodi:namedview
     id="namedview12"
     pagecolor="#505050"
     bordercolor="#eeeeee"
     borderopacity="1"
     inkscape:showpageshadow="0"
     inkscape:pageopacity="0"
     inkscape:pagecheckerboard="0"
     inkscape:deskcolor="#505050"
     showgrid="false"
     inkscape:zoom="3.6953125"
     inkscape:cx="42.892178"
     inkscape:cy="38.156448"
     inkscape:window-width="1320"
     inkscape:window-height="704"
     inkscape:window-x="0"
     inkscape:window-y="0"
     inkscape:window-maximized="1"
     inkscape:current-layer="svg10" />
  <g
     id="g251"
     transform="matrix(0.78127538,0,0,0.78127538,-12.077446,-0.00104757)">
    <path
       d="m 109.766,7.281 a 7.691,7.691 0 0 1 -1.09,4.282 7.583,7.583 0 0 1 -3.262,2.949 7.49,7.49 0 0 1 -4.34,0.62 A 7.525,7.525 0 0 1 97.121,13.219 7.642,7.642 0 0 1 95.137,5 a 7.606,7.606 0 0 1 2.629,-3.531 7.509,7.509 0 0 1 4.136,-1.461 7.51,7.51 0 0 1 5.422,1.996 7.627,7.627 0 0 1 2.438,5.273 z m 0,0"
       fill="#767677"
       id="path2" />
    <path
       d="M 65.758,96.79 C 45.66,96.79 28.109,89.426 18.992,78.523 a 49.95,49.95 0 0 0 18.102,24.254 49.251,49.251 0 0 0 28.676,9.215 49.279,49.279 0 0 0 28.675,-9.215 49.917,49.917 0 0 0 18.094,-24.254 C 103.406,89.426 85.855,96.79 65.758,96.79 Z m 0,0 M 65.75,25.883 c 20.098,0 37.652,7.367 46.766,18.265 A 49.95,49.95 0 0 0 94.414,19.895 49.27,49.27 0 0 0 65.742,10.675 49.27,49.27 0 0 0 37.07,19.895 49.909,49.909 0 0 0 18.97,44.148 C 28.102,33.27 45.652,25.883 65.75,25.883 Z m 0,0"
       fill="#f37726"
       id="path4" />
    <path
       d="m 38.164,117.984 a 9.671,9.671 0 0 1 -1.371,5.399 9.5,9.5 0 0 1 -9.59,4.504 9.405,9.405 0 0 1 -4.98,-2.418 9.671,9.671 0 0 1 -2.809,-4.797 9.73,9.73 0 0 1 0.313,-5.567 9.624,9.624 0 0 1 3.328,-4.453 9.466,9.466 0 0 1 12.043,0.688 9.63,9.63 0 0 1 3.066,6.648 z m 0,0"
       fill="#989798"
       id="path6" />
    <path
       d="m 21.285,23.418 a 5.53,5.53 0 0 1 -3.14,-0.816 5.627,5.627 0 0 1 -2.618,-5.672 5.612,5.612 0 0 1 1.407,-2.95 5.593,5.593 0 0 1 2.789,-1.664 5.46,5.46 0 0 1 3.238,0.184 5.539,5.539 0 0 1 2.586,1.969 5.66,5.66 0 0 1 -0.399,7.129 5.557,5.557 0 0 1 -3.867,1.82 z m 0,0"
       fill="#6f7070"
       id="path8" />
  </g>
</svg>
