<?xml version="1.0" encoding="UTF-8" standalone="no"?>
<svg
   viewBox="0 0 89.5 110"
   version="1.1"
   id="svg9698"
   sodipodi:docname="raspberrypi-original.svg"
   width="89.5"
   height="110"
   inkscape:version="1.2.2 (b0a8486541, 2022-12-01)"
   xmlns:inkscape="http://www.inkscape.org/namespaces/inkscape"
   xmlns:sodipodi="http://sodipodi.sourceforge.net/DTD/sodipodi-0.dtd"
   xmlns="http://www.w3.org/2000/svg"
   xmlns:svg="http://www.w3.org/2000/svg">
  <defs
     id="defs9702" />
  <sodipodi:namedview
     id="namedview9700"
     pagecolor="#505050"
     bordercolor="#eeeeee"
     borderopacity="1"
     inkscape:showpageshadow="0"
     inkscape:pageopacity="0"
     inkscape:pagecheckerboard="0"
     inkscape:deskcolor="#505050"
     showgrid="false"
     inkscape:zoom="3.6953125"
     inkscape:cx="47.221987"
     inkscape:cy="59.264271"
     inkscape:window-width="1320"
     inkscape:window-height="704"
     inkscape:window-x="0"
     inkscape:window-y="0"
     inkscape:window-maximized="1"
     inkscape:current-layer="svg9698" />
  <g
     id="g9824"
     transform="matrix(0.84745559,0,0,0.84745559,-14.487143,-4.2370412)">
    <path
       d="M 42.489,5.002 C 41.883,5.02 41.231,5.241 40.491,5.816 38.678,5.127 36.921,4.888 35.349,6.29 32.922,5.98 32.133,6.62 31.535,7.367 c -0.532,-0.011 -3.986,-0.54 -5.57,1.788 -3.98,-0.464 -5.239,2.306 -3.814,4.889 -0.812,1.24 -1.655,2.464 0.246,4.827 -0.672,1.317 -0.255,2.744 1.33,4.473 -0.419,1.85 0.403,3.155 1.877,4.173 -0.276,2.531 2.357,4.004 3.143,4.528 0.302,1.475 0.932,2.868 3.94,3.637 0.495,2.2 2.303,2.579 4.053,3.04 -5.785,3.313 -10.746,7.67 -10.712,18.363 l -0.848,1.49 c -6.633,3.973 -12.601,16.743 -3.269,27.123 0.61,3.25 1.632,5.583 2.542,8.166 1.362,10.409 10.247,15.282 12.59,15.859 3.435,2.576 7.092,5.02 12.042,6.733 4.665,4.74 9.72,6.546 14.803,6.544 h 0.224 c 5.083,0.003 10.138,-1.804 14.803,-6.544 4.95,-1.712 8.607,-4.157 12.041,-6.733 2.344,-0.577 11.229,-5.45 12.59,-15.86 0.91,-2.582 1.933,-4.915 2.543,-8.165 9.332,-10.38 3.364,-23.152 -3.27,-27.126 l -0.848,-1.488 c 0.034,-10.692 -4.927,-15.05 -10.712,-18.363 1.75,-0.461 3.558,-0.841 4.054,-3.04 3.007,-0.77 3.636,-2.162 3.938,-3.637 0.787,-0.525 3.42,-1.997 3.144,-4.53 1.474,-1.016 2.296,-2.322 1.878,-4.172 1.584,-1.728 2,-3.156 1.328,-4.472 1.902,-2.362 1.058,-3.587 0.246,-4.827 1.425,-2.583 0.168,-5.353 -3.814,-4.889 C 100.449,6.827 96.996,7.356 96.463,7.366 95.865,6.619 95.076,5.979 92.649,6.289 91.078,4.888 89.32,5.127 87.507,5.816 85.355,4.143 83.93,5.484 82.303,5.991 79.697,5.151 79.101,6.301 77.821,6.769 74.979,6.177 74.115,7.465 72.752,8.825 L 71.167,8.794 c -4.286,2.488 -6.416,7.555 -7.17,10.16 -0.756,-2.606 -2.88,-7.673 -7.166,-10.16 l -1.585,0.03 C 53.882,7.464 53.018,6.177 50.176,6.769 48.896,6.301 48.301,5.152 45.693,5.991 44.625,5.658 43.643,4.966 42.487,5.001 l 0.002,10e-4"
       fill="#050606"
       id="path9692" />
    <path
       d="m 34.04,15.95 c 11.373,5.774 17.984,10.447 21.606,14.426 -1.854,7.323 -11.531,7.657 -15.07,7.451 0.725,-0.332 1.33,-0.73 1.544,-1.34 -0.888,-0.622 -4.036,-0.066 -6.234,-1.283 0.844,-0.172 1.239,-0.34 1.634,-0.953 -2.077,-0.653 -4.313,-1.215 -5.629,-2.296 0.71,0.01 1.373,0.157 2.3,-0.477 -1.86,-0.987 -3.845,-1.769 -5.386,-3.278 0.96,-0.023 1.998,-0.01 2.3,-0.358 -1.703,-1.038 -3.14,-2.194 -4.328,-3.457 1.346,0.16 1.914,0.022 2.24,-0.21 -1.288,-1.297 -2.916,-2.393 -3.693,-3.993 1,0.34 1.914,0.47 2.573,-0.03 -0.438,-0.972 -2.311,-1.545 -3.39,-3.815 1.052,0.1 2.168,0.226 2.391,0 -0.488,-1.96 -1.326,-3.061 -2.148,-4.202 2.251,-0.033 5.662,0.008 5.508,-0.18 l -1.392,-1.4 c 2.199,-0.583 4.449,0.094 6.083,0.596 0.733,-0.57 -0.013,-1.29 -0.908,-2.027 1.869,0.246 3.557,0.67 5.083,1.252 0.816,-0.725 -0.529,-1.45 -1.18,-2.176 2.888,0.54 4.111,1.298 5.326,2.057 0.883,-0.833 0.05,-1.54 -0.544,-2.265 2.177,0.794 3.298,1.82 4.479,2.831 0.4,-0.532 1.016,-0.922 0.272,-2.206 1.545,0.878 2.71,1.912 3.57,3.07 0.957,-0.6 0.57,-1.42 0.576,-2.175 1.606,1.287 2.626,2.656 3.874,3.994 0.25,-0.18 0.47,-0.792 0.665,-1.759 3.832,3.662 9.247,12.886 1.392,16.543 -6.685,-5.43 -14.67,-9.378 -23.517,-12.34 h 0.002 m 60.239,0 c -11.373,5.775 -17.984,10.446 -21.606,14.426 1.855,7.323 11.532,7.657 15.07,7.451 -0.725,-0.332 -1.329,-0.73 -1.543,-1.34 0.888,-0.622 4.036,-0.066 6.234,-1.283 -0.844,-0.172 -1.24,-0.34 -1.634,-0.953 2.076,-0.653 4.313,-1.215 5.628,-2.296 -0.71,0.01 -1.373,0.157 -2.3,-0.477 1.86,-0.987 3.845,-1.769 5.387,-3.278 -0.962,-0.023 -1.998,-0.01 -2.3,-0.358 1.703,-1.038 3.139,-2.194 4.328,-3.457 -1.346,0.16 -1.914,0.022 -2.24,-0.21 1.287,-1.297 2.916,-2.393 3.692,-3.993 -0.999,0.34 -1.913,0.47 -2.572,-0.03 0.437,-0.972 2.31,-1.545 3.39,-3.815 -1.053,0.1 -2.168,0.226 -2.392,0 0.49,-1.96 1.327,-3.062 2.149,-4.203 -2.251,-0.033 -5.662,0.008 -5.508,-0.179 l 1.393,-1.4 c -2.2,-0.584 -4.45,0.093 -6.083,0.595 -0.734,-0.57 0.013,-1.29 0.907,-2.027 -1.868,0.246 -3.557,0.67 -5.083,1.252 -0.816,-0.725 0.529,-1.45 1.18,-2.176 -2.887,0.54 -4.11,1.298 -5.326,2.057 -0.882,-0.833 -0.05,-1.54 0.544,-2.265 -2.177,0.794 -3.298,1.82 -4.478,2.831 -0.4,-0.532 -1.017,-0.922 -0.273,-2.206 -1.545,0.878 -2.71,1.912 -3.57,3.07 -0.957,-0.6 -0.57,-1.42 -0.576,-2.175 -1.606,1.287 -2.626,2.657 -3.873,3.994 -0.251,-0.18 -0.471,-0.792 -0.666,-1.759 -3.832,3.662 -9.247,12.886 -1.392,16.543 6.682,-5.432 14.665,-9.379 23.514,-12.34 h -10e-4"
       fill="#63c54d"
       id="path9694" />
    <path
       d="m 77.913,90.52 c 0.04,6.833 -6.028,12.402 -13.551,12.438 -7.524,0.036 -13.655,-5.474 -13.695,-12.308 v -0.13 c -0.04,-6.834 6.027,-12.403 13.551,-12.439 7.524,-0.036 13.655,5.474 13.695,12.308 v 0.13 M 56.672,55.173 c 5.645,3.642 6.662,11.9 2.273,18.442 -4.39,6.543 -12.524,8.894 -18.169,5.251 -5.644,-3.642 -6.662,-11.9 -2.273,-18.442 4.39,-6.543 12.524,-8.894 18.169,-5.251 m 15.236,-0.66 c -5.645,3.643 -6.663,11.9 -2.273,18.443 4.39,6.542 12.524,8.894 18.168,5.25 5.645,-3.642 6.663,-11.899 2.273,-18.442 -4.39,-6.542 -12.523,-8.893 -18.168,-5.25 m -43.099,6.652 c 6.094,-1.609 2.057,24.835 -2.901,22.665 -5.455,-4.321 -7.212,-16.977 2.9,-22.665 m 70.43,-0.329 c -6.095,-1.609 -2.058,24.835 2.901,22.666 5.455,-4.322 7.211,-16.978 -2.901,-22.666 m -20.44,-19.73 c 10.517,-1.75 19.268,4.405 18.915,15.639 -0.346,4.306 -22.79,-14.998 -18.915,-15.64 M 49.739,40.777 c -10.519,-1.75 -19.27,4.407 -18.916,15.64 0.346,4.306 22.79,-14.999 18.916,-15.64 m 14.489,-2.62 c -6.277,-0.16 -12.301,4.59 -12.316,7.344 -0.017,3.348 4.963,6.775 12.36,6.862 7.552,0.053 12.371,-2.743 12.396,-6.198 0.027,-3.914 -6.87,-8.068 -12.44,-8.008 m 0.485,68.645 c 5.473,-0.236 12.817,1.736 12.831,4.351 0.091,2.54 -6.66,8.278 -13.194,8.168 -6.767,0.287 -13.402,-5.46 -13.315,-7.452 -0.101,-2.921 8.24,-5.201 13.678,-5.067 M 44.459,91.3 c 3.896,4.625 5.672,12.748 2.421,15.142 -3.076,1.829 -10.547,1.076 -15.858,-6.438 -3.58,-6.304 -3.119,-12.72 -0.604,-14.605 3.76,-2.256 9.57,0.791 14.04,5.901 M 83.69,89.835 c -4.217,4.864 -6.565,13.735 -3.489,16.592 2.94,2.22 10.834,1.91 16.666,-6.06 4.234,-5.352 2.815,-14.29 0.397,-16.664 -3.593,-2.738 -8.75,0.765 -13.575,6.13 v 0.002"
       fill="#c51850"
       id="path9696" />
  </g>
</svg>
