<?xml version="1.0" encoding="UTF-8" standalone="no"?>
<svg
   version="1.1"
   height="104.99971"
   width="104.99971"
   id="svg93"
   sodipodi:docname="rust_programming_language_logo_white.svg"
   inkscape:version="1.2.2 (b0a8486541, 2022-12-01)"
   inkscape:export-filename="../../../../rust_programming_language_logo_white.svg"
   inkscape:export-xdpi="241.905"
   inkscape:export-ydpi="241.905"
   xmlns:inkscape="http://www.inkscape.org/namespaces/inkscape"
   xmlns:sodipodi="http://sodipodi.sourceforge.net/DTD/sodipodi-0.dtd"
   xmlns:xlink="http://www.w3.org/1999/xlink"
   xmlns="http://www.w3.org/2000/svg"
   xmlns:svg="http://www.w3.org/2000/svg">
  <defs
     id="defs97">
    <mask
       id="holes">
      <rect
         x="-60"
         y="-60"
         width="120"
         height="120"
         fill="#ffffff"
         id="rect80" />
      <circle
         id="hole"
         cy="-40"
         r="3"
         cx="0" />
      <use
         xlink:href="#hole"
         transform="rotate(72)"
         id="use83" />
      <use
         xlink:href="#hole"
         transform="rotate(144)"
         id="use85" />
      <use
         xlink:href="#hole"
         transform="rotate(-144)"
         id="use87" />
      <use
         xlink:href="#hole"
         transform="rotate(-72)"
         id="use89" />
    </mask>
    <mask
       maskUnits="userSpaceOnUse"
       id="mask2328">
      <g
         id="g2342"
         transform="translate(-53,-53)">
        <rect
           x="-7"
           y="-7"
           width="120"
           height="120"
           fill="#ffffff"
           id="rect2330" />
        <circle
           id="circle2332"
           cy="13"
           r="3"
           cx="53" />
        <use
           xlink:href="#hole"
           transform="rotate(72,-9.9741209,62.974121)"
           id="use2334" />
        <use
           xlink:href="#hole"
           transform="rotate(144,17.889628,35.110372)"
           id="use2336" />
        <use
           xlink:href="#hole"
           transform="rotate(-144,35.110372,17.889628)"
           id="use2338" />
        <use
           xlink:href="#hole"
           transform="rotate(-72,62.974121,-9.9741209)"
           id="use2340" />
      </g>
    </mask>
    <mask
       maskUnits="userSpaceOnUse"
       id="mask2344">
      <g
         id="g2358"
         transform="translate(-53,-53)">
        <rect
           x="-7"
           y="-7"
           width="120"
           height="120"
           fill="#ffffff"
           id="rect2346" />
        <circle
           id="circle2348"
           cy="13"
           r="3"
           cx="53" />
        <use
           xlink:href="#hole"
           transform="rotate(72,-9.9741209,62.974121)"
           id="use2350" />
        <use
           xlink:href="#hole"
           transform="rotate(144,17.889628,35.110372)"
           id="use2352" />
        <use
           xlink:href="#hole"
           transform="rotate(-144,35.110372,17.889628)"
           id="use2354" />
        <use
           xlink:href="#hole"
           transform="rotate(-72,62.974121,-9.9741209)"
           id="use2356" />
      </g>
    </mask>
    <mask
       maskUnits="userSpaceOnUse"
       id="mask2360">
      <g
         id="g2374"
         transform="translate(-53,-53)">
        <rect
           x="-7"
           y="-7"
           width="120"
           height="120"
           fill="#ffffff"
           id="rect2362" />
        <circle
           id="circle2364"
           cy="13"
           r="3"
           cx="53" />
        <use
           xlink:href="#hole"
           transform="rotate(72,-9.9741209,62.974121)"
           id="use2366" />
        <use
           xlink:href="#hole"
           transform="rotate(144,17.889628,35.110372)"
           id="use2368" />
        <use
           xlink:href="#hole"
           transform="rotate(-144,35.110372,17.889628)"
           id="use2370" />
        <use
           xlink:href="#hole"
           transform="rotate(-72,62.974121,-9.9741209)"
           id="use2372" />
      </g>
    </mask>
  </defs>
  <sodipodi:namedview
     id="namedview95"
     pagecolor="#505050"
     bordercolor="#eeeeee"
     borderopacity="1"
     inkscape:showpageshadow="0"
     inkscape:pageopacity="0"
     inkscape:pagecheckerboard="0"
     inkscape:deskcolor="#505050"
     showgrid="false"
     inkscape:zoom="4.7428699"
     inkscape:cx="54.502865"
     inkscape:cy="52.921544"
     inkscape:window-width="1320"
     inkscape:window-height="704"
     inkscape:window-x="0"
     inkscape:window-y="0"
     inkscape:window-maximized="1"
     inkscape:current-layer="svg93" />
  <g
     id="g2555"
     transform="translate(-0.5001415,-0.5001415)">
    <path
       id="r"
       stroke="#000000"
       stroke-width="1"
       stroke-linejoin="round"
       d="m 44.5,38.5 h 13 c 8,0 8,8 0,8 h -13 z m -31,37 h 40 v -11 h -9 v -8 h 10 c 11,0 5,19 14,19 h 25 v -19 h -6 v 2 c 0,8 -9,7 -10,2 -1,-5 -5,-9 -6,-9 15,-8 6,-24 -6,-24 h -47 v 11 h 10 v 26 h -15 z"
       style="fill:#ffffff;fill-opacity:1;stroke:#ffffff;stroke-opacity:1" />
    <circle
       r="43"
       fill="none"
       stroke="#000000"
       stroke-width="9"
       id="circle3"
       cx="0"
       cy="0"
       transform="translate(53,53)"
       mask="url(#mask2360)"
       style="stroke:#ffffff;stroke-opacity:1" />
    <g
       id="cogs"
       transform="translate(53,53)"
       mask="url(#mask2344)"
       style="fill:#ffffff;fill-opacity:1;stroke:#ffffff;stroke-opacity:1">
      <polygon
         id="cog"
         stroke="#000000"
         stroke-width="3"
         stroke-linejoin="round"
         points="46,-3 46,3 51,0 "
         style="fill:#ffffff;fill-opacity:1;stroke:#ffffff;stroke-opacity:1" />
      <polygon
         id="use6"
         stroke="#000000"
         stroke-width="3"
         stroke-linejoin="round"
         points="51,0 46,-3 46,3 "
         style="fill:#ffffff;fill-opacity:1;stroke:#ffffff;stroke-opacity:1"
         transform="rotate(11.25)" />
      <polygon
         id="use8"
         stroke="#000000"
         stroke-width="3"
         stroke-linejoin="round"
         points="51,0 46,-3 46,3 "
         style="fill:#ffffff;fill-opacity:1;stroke:#ffffff;stroke-opacity:1"
         transform="rotate(22.5)" />
      <polygon
         id="use10"
         stroke="#000000"
         stroke-width="3"
         stroke-linejoin="round"
         points="51,0 46,-3 46,3 "
         style="fill:#ffffff;fill-opacity:1;stroke:#ffffff;stroke-opacity:1"
         transform="rotate(33.75)" />
      <polygon
         id="use12"
         stroke="#000000"
         stroke-width="3"
         stroke-linejoin="round"
         points="51,0 46,-3 46,3 "
         style="fill:#ffffff;fill-opacity:1;stroke:#ffffff;stroke-opacity:1"
         transform="rotate(45)" />
      <polygon
         id="use14"
         stroke="#000000"
         stroke-width="3"
         stroke-linejoin="round"
         points="51,0 46,-3 46,3 "
         style="fill:#ffffff;fill-opacity:1;stroke:#ffffff;stroke-opacity:1"
         transform="rotate(56.25)" />
      <polygon
         id="use16"
         stroke="#000000"
         stroke-width="3"
         stroke-linejoin="round"
         points="51,0 46,-3 46,3 "
         style="fill:#ffffff;fill-opacity:1;stroke:#ffffff;stroke-opacity:1"
         transform="rotate(67.5)" />
      <polygon
         id="use18"
         stroke="#000000"
         stroke-width="3"
         stroke-linejoin="round"
         points="51,0 46,-3 46,3 "
         style="fill:#ffffff;fill-opacity:1;stroke:#ffffff;stroke-opacity:1"
         transform="rotate(78.75)" />
      <polygon
         id="use20"
         stroke="#000000"
         stroke-width="3"
         stroke-linejoin="round"
         points="51,0 46,-3 46,3 "
         style="fill:#ffffff;fill-opacity:1;stroke:#ffffff;stroke-opacity:1"
         transform="rotate(90)" />
      <polygon
         id="use22"
         stroke="#000000"
         stroke-width="3"
         stroke-linejoin="round"
         points="51,0 46,-3 46,3 "
         style="fill:#ffffff;fill-opacity:1;stroke:#ffffff;stroke-opacity:1"
         transform="rotate(101.25)" />
      <polygon
         id="use24"
         stroke="#000000"
         stroke-width="3"
         stroke-linejoin="round"
         points="51,0 46,-3 46,3 "
         style="fill:#ffffff;fill-opacity:1;stroke:#ffffff;stroke-opacity:1"
         transform="rotate(112.5)" />
      <polygon
         id="use26"
         stroke="#000000"
         stroke-width="3"
         stroke-linejoin="round"
         points="51,0 46,-3 46,3 "
         style="fill:#ffffff;fill-opacity:1;stroke:#ffffff;stroke-opacity:1"
         transform="rotate(123.75)" />
      <polygon
         id="use28"
         stroke="#000000"
         stroke-width="3"
         stroke-linejoin="round"
         points="51,0 46,-3 46,3 "
         style="fill:#ffffff;fill-opacity:1;stroke:#ffffff;stroke-opacity:1"
         transform="rotate(135)" />
      <polygon
         id="use30"
         stroke="#000000"
         stroke-width="3"
         stroke-linejoin="round"
         points="51,0 46,-3 46,3 "
         style="fill:#ffffff;fill-opacity:1;stroke:#ffffff;stroke-opacity:1"
         transform="rotate(146.25)" />
      <polygon
         id="use32"
         stroke="#000000"
         stroke-width="3"
         stroke-linejoin="round"
         points="51,0 46,-3 46,3 "
         style="fill:#ffffff;fill-opacity:1;stroke:#ffffff;stroke-opacity:1"
         transform="rotate(157.5)" />
      <polygon
         id="use34"
         stroke="#000000"
         stroke-width="3"
         stroke-linejoin="round"
         points="51,0 46,-3 46,3 "
         style="fill:#ffffff;fill-opacity:1;stroke:#ffffff;stroke-opacity:1"
         transform="rotate(168.75)" />
      <polygon
         id="use36"
         stroke="#000000"
         stroke-width="3"
         stroke-linejoin="round"
         points="51,0 46,-3 46,3 "
         style="fill:#ffffff;fill-opacity:1;stroke:#ffffff;stroke-opacity:1"
         transform="scale(-1)" />
      <polygon
         id="use38"
         stroke="#000000"
         stroke-width="3"
         stroke-linejoin="round"
         points="51,0 46,-3 46,3 "
         style="fill:#ffffff;fill-opacity:1;stroke:#ffffff;stroke-opacity:1"
         transform="rotate(-168.75)" />
      <polygon
         id="use40"
         stroke="#000000"
         stroke-width="3"
         stroke-linejoin="round"
         points="51,0 46,-3 46,3 "
         style="fill:#ffffff;fill-opacity:1;stroke:#ffffff;stroke-opacity:1"
         transform="rotate(-157.5)" />
      <polygon
         id="use42"
         stroke="#000000"
         stroke-width="3"
         stroke-linejoin="round"
         points="51,0 46,-3 46,3 "
         style="fill:#ffffff;fill-opacity:1;stroke:#ffffff;stroke-opacity:1"
         transform="rotate(-146.25)" />
      <polygon
         id="use44"
         stroke="#000000"
         stroke-width="3"
         stroke-linejoin="round"
         points="51,0 46,-3 46,3 "
         style="fill:#ffffff;fill-opacity:1;stroke:#ffffff;stroke-opacity:1"
         transform="rotate(-135)" />
      <polygon
         id="use46"
         stroke="#000000"
         stroke-width="3"
         stroke-linejoin="round"
         points="51,0 46,-3 46,3 "
         style="fill:#ffffff;fill-opacity:1;stroke:#ffffff;stroke-opacity:1"
         transform="rotate(-123.75)" />
      <polygon
         id="use48"
         stroke="#000000"
         stroke-width="3"
         stroke-linejoin="round"
         points="51,0 46,-3 46,3 "
         style="fill:#ffffff;fill-opacity:1;stroke:#ffffff;stroke-opacity:1"
         transform="rotate(-112.5)" />
      <polygon
         id="use50"
         stroke="#000000"
         stroke-width="3"
         stroke-linejoin="round"
         points="51,0 46,-3 46,3 "
         style="fill:#ffffff;fill-opacity:1;stroke:#ffffff;stroke-opacity:1"
         transform="rotate(-101.25)" />
      <polygon
         id="use52"
         stroke="#000000"
         stroke-width="3"
         stroke-linejoin="round"
         points="51,0 46,-3 46,3 "
         style="fill:#ffffff;fill-opacity:1;stroke:#ffffff;stroke-opacity:1"
         transform="rotate(-90)" />
      <polygon
         id="use54"
         stroke="#000000"
         stroke-width="3"
         stroke-linejoin="round"
         points="51,0 46,-3 46,3 "
         style="fill:#ffffff;fill-opacity:1;stroke:#ffffff;stroke-opacity:1"
         transform="rotate(-78.75)" />
      <polygon
         id="use56"
         stroke="#000000"
         stroke-width="3"
         stroke-linejoin="round"
         points="51,0 46,-3 46,3 "
         style="fill:#ffffff;fill-opacity:1;stroke:#ffffff;stroke-opacity:1"
         transform="rotate(-67.5)" />
      <polygon
         id="use58"
         stroke="#000000"
         stroke-width="3"
         stroke-linejoin="round"
         points="51,0 46,-3 46,3 "
         style="fill:#ffffff;fill-opacity:1;stroke:#ffffff;stroke-opacity:1"
         transform="rotate(-56.25)" />
      <polygon
         id="use60"
         stroke="#000000"
         stroke-width="3"
         stroke-linejoin="round"
         points="51,0 46,-3 46,3 "
         style="fill:#ffffff;fill-opacity:1;stroke:#ffffff;stroke-opacity:1"
         transform="rotate(-45)" />
      <polygon
         id="use62"
         stroke="#000000"
         stroke-width="3"
         stroke-linejoin="round"
         points="51,0 46,-3 46,3 "
         style="fill:#ffffff;fill-opacity:1;stroke:#ffffff;stroke-opacity:1"
         transform="rotate(-33.75)" />
      <polygon
         id="use64"
         stroke="#000000"
         stroke-width="3"
         stroke-linejoin="round"
         points="51,0 46,-3 46,3 "
         style="fill:#ffffff;fill-opacity:1;stroke:#ffffff;stroke-opacity:1"
         transform="rotate(-22.5)" />
      <polygon
         id="use66"
         stroke="#000000"
         stroke-width="3"
         stroke-linejoin="round"
         points="51,0 46,-3 46,3 "
         style="fill:#ffffff;fill-opacity:1;stroke:#ffffff;stroke-opacity:1"
         transform="rotate(-11.25)" />
    </g>
    <g
       id="mounts"
       transform="translate(53,53)"
       mask="url(#mask2328)"
       style="stroke:#ffffff;stroke-opacity:1">
      <polygon
         id="mount"
         stroke="#000000"
         stroke-width="6"
         stroke-linejoin="round"
         points="7,-42 -7,-42 0,-35 "
         style="stroke:#ffffff;stroke-opacity:1" />
      <polygon
         id="use70"
         stroke="#000000"
         stroke-width="6"
         stroke-linejoin="round"
         points="0,-35 7,-42 -7,-42 "
         style="stroke:#ffffff;stroke-opacity:1"
         transform="rotate(72)" />
      <polygon
         id="use72"
         stroke="#000000"
         stroke-width="6"
         stroke-linejoin="round"
         points="0,-35 7,-42 -7,-42 "
         style="stroke:#ffffff;stroke-opacity:1"
         transform="rotate(144)" />
      <polygon
         id="use74"
         stroke="#000000"
         stroke-width="6"
         stroke-linejoin="round"
         points="0,-35 7,-42 -7,-42 "
         style="stroke:#ffffff;stroke-opacity:1"
         transform="rotate(-144)" />
      <polygon
         id="use76"
         stroke="#000000"
         stroke-width="6"
         stroke-linejoin="round"
         points="0,-35 7,-42 -7,-42 "
         style="stroke:#ffffff;stroke-opacity:1"
         transform="rotate(-72)" />
    </g>
  </g>
</svg>
