<?xml version="1.0" encoding="UTF-8" standalone="no"?>
<svg
   version="1.1"
   height="110"
   width="110"
   id="svg93"
   sodipodi:docname="rust_programming_language_logo_white.svg"
   inkscape:version="1.2.2 (b0a8486541, 2022-12-01)"
   inkscape:export-filename="../../../../rust_programming_language_logo_white.svg"
   inkscape:export-xdpi="241.905"
   inkscape:export-ydpi="241.905"
   xmlns:inkscape="http://www.inkscape.org/namespaces/inkscape"
   xmlns:sodipodi="http://sodipodi.sourceforge.net/DTD/sodipodi-0.dtd"
   xmlns:xlink="http://www.w3.org/1999/xlink"
   xmlns="http://www.w3.org/2000/svg"
   xmlns:svg="http://www.w3.org/2000/svg">
  <defs
     id="defs97">
    <mask
       id="holes">
      <rect
         x="-60"
         y="-60"
         width="120"
         height="120"
         fill="#ffffff"
         id="rect80" />
      <circle
         id="hole"
         cy="-40"
         r="3"
         cx="0" />
      <use
         xlink:href="#hole"
         transform="rotate(72)"
         id="use83" />
      <use
         xlink:href="#hole"
         transform="rotate(144)"
         id="use85" />
      <use
         xlink:href="#hole"
         transform="rotate(-144)"
         id="use87" />
      <use
         xlink:href="#hole"
         transform="rotate(-72)"
         id="use89" />
    </mask>
    <mask
       maskUnits="userSpaceOnUse"
       id="mask2328">
      <g
         id="g2342"
         transform="translate(-53,-53)">
        <rect
           x="-7"
           y="-7"
           width="120"
           height="120"
           fill="#ffffff"
           id="rect2330" />
        <circle
           id="circle2332"
           cy="13"
           r="3"
           cx="53" />
        <use
           xlink:href="#hole"
           transform="rotate(72,-9.9741209,62.974121)"
           id="use2334" />
        <use
           xlink:href="#hole"
           transform="rotate(144,17.889628,35.110372)"
           id="use2336" />
        <use
           xlink:href="#hole"
           transform="rotate(-144,35.110372,17.889628)"
           id="use2338" />
        <use
           xlink:href="#hole"
           transform="rotate(-72,62.974121,-9.9741209)"
           id="use2340" />
      </g>
    </mask>
    <mask
       maskUnits="userSpaceOnUse"
       id="mask2344">
      <g
         id="g2358"
         transform="translate(-53,-53)">
        <rect
           x="-7"
           y="-7"
           width="120"
           height="120"
           fill="#ffffff"
           id="rect2346" />
        <circle
           id="circle2348"
           cy="13"
           r="3"
           cx="53" />
        <use
           xlink:href="#hole"
           transform="rotate(72,-9.9741209,62.974121)"
           id="use2350" />
        <use
           xlink:href="#hole"
           transform="rotate(144,17.889628,35.110372)"
           id="use2352" />
        <use
           xlink:href="#hole"
           transform="rotate(-144,35.110372,17.889628)"
           id="use2354" />
        <use
           xlink:href="#hole"
           transform="rotate(-72,62.974121,-9.9741209)"
           id="use2356" />
      </g>
    </mask>
    <mask
       maskUnits="userSpaceOnUse"
       id="mask2360">
      <g
         id="g2374"
         transform="translate(-53,-53)">
        <rect
           x="-7"
           y="-7"
           width="120"
           height="120"
           fill="#ffffff"
           id="rect2362" />
        <circle
           id="circle2364"
           cy="13"
           r="3"
           cx="53" />
        <use
           xlink:href="#hole"
           transform="rotate(72,-9.9741209,62.974121)"
           id="use2366" />
        <use
           xlink:href="#hole"
           transform="rotate(144,17.889628,35.110372)"
           id="use2368" />
        <use
           xlink:href="#hole"
           transform="rotate(-144,35.110372,17.889628)"
           id="use2370" />
        <use
           xlink:href="#hole"
           transform="rotate(-72,62.974121,-9.9741209)"
           id="use2372" />
      </g>
    </mask>
  </defs>
  <sodipodi:namedview
     id="namedview95"
     pagecolor="#505050"
     bordercolor="#eeeeee"
     borderopacity="1"
     inkscape:showpageshadow="0"
     inkscape:pageopacity="0"
     inkscape:pagecheckerboard="0"
     inkscape:deskcolor="#505050"
     showgrid="false"
     inkscape:zoom="4.7428699"
     inkscape:cx="54.924551"
     inkscape:cy="53.132387"
     inkscape:window-width="1320"
     inkscape:window-height="704"
     inkscape:window-x="0"
     inkscape:window-y="0"
     inkscape:window-maximized="1"
     inkscape:current-layer="svg93" />
  <g
     id="g2555"
     transform="matrix(0.9523619,0,0,0.9523619,-0.47518079,-0.47518079)">
    <g
       id="r">
      <path
         style="color:#000000;fill:#ffffff;stroke-linejoin:round;-inkscape-stroke:none"
         d="m 44.5,38.5 h 13 c 8,0 8,8 0,8 h -13 z m -31,37 h 40 v -11 h -9 v -8 h 10 c 11,0 5,19 14,19 h 25 v -19 h -6 v 2 c 0,8 -9,7 -10,2 -1,-5 -5,-9 -6,-9 15,-8 6,-24 -6,-24 h -47 v 11 h 10 v 26 h -15 z"
         id="path11431" />
      <path
         style="color:#000000;fill:#ffffff;stroke-linejoin:round;-inkscape-stroke:none"
         d="M 18.5,27 A 0.50005,0.50005 0 0 0 18,27.5 v 11 A 0.50005,0.50005 0 0 0 18.5,39 H 28 V 64 H 13.5 A 0.50005,0.50005 0 0 0 13,64.5 v 11 a 0.50005,0.50005 0 0 0 0.5,0.5 h 40 A 0.50005,0.50005 0 0 0 54,75.5 v -11 A 0.50005,0.50005 0 0 0 53.5,64 H 45 v -7 h 9.5 c 2.606058,0 4.082595,1.061115 5.140625,2.736328 1.05803,1.675214 1.620872,4.000409 2.119141,6.367188 0.498269,2.366778 0.930049,4.768524 1.853515,6.648437 C 64.536747,74.631866 66.074077,76 68.5,76 h 25 A 0.50005,0.50005 0 0 0 94,75.5 v -19 A 0.50005,0.50005 0 0 0 93.5,56 h -6 A 0.50005,0.50005 0 0 0 87,56.5 v 2 c 0,1.906248 -0.528359,3.208619 -1.292969,4.056641 -0.76461,0.848022 -1.783945,1.26186 -2.857422,1.318359 -2.146952,0.112998 -4.41469,-1.249233 -4.859375,-3.472656 -0.520114,-2.60057 -1.805975,-4.907924 -3.09375,-6.582032 -0.643887,-0.837053 -1.288231,-1.515892 -1.853515,-1.998046 -0.206159,-0.175842 -0.390462,-0.294982 -0.576172,-0.417969 3.316053,-1.958528 5.534161,-4.307529 6.574219,-6.839844 1.128618,-2.74794 1.028712,-5.637625 0.05273,-8.240234 C 77.141793,31.119001 71.722216,27 65.5,27 Z m 0.5,1 h 46.5 c 5.777772,0 10.85821,3.881009 12.65625,8.675781 0.89902,2.397386 0.986614,5.007712 -0.04102,7.509766 -1.027629,2.502054 -3.178994,4.915385 -6.849609,6.873047 A 0.50005,0.50005 0 0 0 71.5,52 c -0.04167,0 0.08504,0.01806 0.253906,0.115234 0.168863,0.09718 0.392018,0.256703 0.640625,0.46875 0.497215,0.424095 1.102873,1.057759 1.708985,1.845703 1.212222,1.57589 2.426365,3.768544 2.90625,6.167969 0.555314,2.776572 3.287582,4.414346 5.890625,4.277344 1.301521,-0.0685 2.594689,-0.592164 3.548828,-1.650391 C 87.403357,62.166383 88,60.593748 88,58.5 V 57 h 5 V 75 H 68.5 C 66.425928,75 65.338251,73.99313 64.511719,72.310547 63.685187,70.627964 63.241964,68.279701 62.740234,65.896484 62.238504,63.513267 61.676343,61.088455 60.484375,59.201172 59.292407,57.313889 57.393937,56 54.5,56 h -10 A 0.50005,0.50005 0 0 0 44,56.5 v 8 A 0.50005,0.50005 0 0 0 44.5,65 H 53 V 75 H 14 V 65 H 28.5 A 0.50005,0.50005 0 0 0 29,64.5 v -26 A 0.50005,0.50005 0 0 0 28.5,38 H 19 Z M 44.5,38 A 0.50005,0.50005 0 0 0 44,38.5 v 8 a 0.50005,0.50005 0 0 0 0.5,0.5 h 13 c 2.083331,0 3.694116,-0.51961 4.800781,-1.349609 C 63.407447,44.820391 64,43.666665 64,42.5 64,41.333334 63.407447,40.179609 62.300781,39.349609 61.194116,38.51961 59.583331,38 57.5,38 Z m 0.5,1 h 12.5 c 1.916665,0 3.305886,0.480391 4.199219,1.150391 C 62.592551,40.82039 63,41.666667 63,42.5 63,43.333332 62.592551,44.17961 61.699219,44.849609 60.805886,45.519609 59.416665,46 57.5,46 H 45 Z"
         id="path11433" />
    </g>
    <path
       style="color:#000000;fill:#ffffff;-inkscape-stroke:none"
       d="m 0,-47.5 c -26.180199,0 -47.5,21.319801 -47.5,47.5 0,26.180199 21.319801,47.5 47.5,47.5 C 26.180199,47.5 47.5,26.180199 47.5,0 47.5,-26.180199 26.180199,-47.5 0,-47.5 Z m 0,9 c 21.316242,0 38.5,17.183758 38.5,38.5 0,21.316242 -17.183758,38.5 -38.5,38.5 -21.316242,0 -38.5,-17.183758 -38.5,-38.5 0,-21.316242 17.183758,-38.5 38.5,-38.5 z"
       id="circle3"
       transform="translate(53,53)" />
    <g
       id="cogs"
       transform="translate(53,53)"
       mask="url(#mask2344)"
       style="fill:#ffffff;stroke:#ffffff">
      <g
         id="cog">
        <path
           style="color:#000000;stroke:none;stroke-width:3;stroke-linejoin:round;-inkscape-stroke:none"
           d="M 46,-3 V 3 L 51,0 Z"
           id="path11441" />
        <path
           style="color:#000000;stroke:none;stroke-linejoin:round;-inkscape-stroke:none"
           d="M 45.261719,-4.3046875 A 1.50015,1.50015 0 0 0 44.5,-3 v 6 a 1.50015,1.50015 0 0 0 2.271484,1.2871094 l 5,-3 a 1.50015,1.50015 0 0 0 0,-2.5742188 l -5,-3 a 1.50015,1.50015 0 0 0 -1.509765,-0.017578 z M 47.5,-0.34960938 48.083984,0 47.5,0.34960938 Z"
           id="path11443" />
      </g>
      <g
         id="use6"
         transform="rotate(11.25)">
        <path
           style="color:#000000;stroke:none;stroke-width:3;stroke-linejoin:round;-inkscape-stroke:none"
           d="M 51,0 46,-3 V 3 Z"
           id="path11447" />
        <path
           style="color:#000000;stroke:none;stroke-linejoin:round;-inkscape-stroke:none"
           d="M 45.261719,-4.3046875 A 1.50015,1.50015 0 0 0 44.5,-3 v 6 a 1.50015,1.50015 0 0 0 2.271484,1.2871094 l 5,-3 a 1.50015,1.50015 0 0 0 0,-2.5742188 l -5,-3 a 1.50015,1.50015 0 0 0 -1.509765,-0.017578 z M 47.5,-0.34960938 48.083984,0 47.5,0.34960938 Z"
           id="path11449" />
      </g>
      <g
         id="use8"
         transform="rotate(22.5)">
        <path
           style="color:#000000;stroke:none;stroke-width:3;stroke-linejoin:round;-inkscape-stroke:none"
           d="M 51,0 46,-3 V 3 Z"
           id="path11453" />
        <path
           style="color:#000000;stroke:none;stroke-linejoin:round;-inkscape-stroke:none"
           d="M 45.261719,-4.3046875 A 1.50015,1.50015 0 0 0 44.5,-3 v 6 a 1.50015,1.50015 0 0 0 2.271484,1.2871094 l 5,-3 a 1.50015,1.50015 0 0 0 0,-2.5742188 l -5,-3 a 1.50015,1.50015 0 0 0 -1.509765,-0.017578 z M 47.5,-0.34960938 48.083984,0 47.5,0.34960938 Z"
           id="path11455" />
      </g>
      <g
         id="use10"
         transform="rotate(33.75)">
        <path
           style="color:#000000;stroke:none;stroke-width:3;stroke-linejoin:round;-inkscape-stroke:none"
           d="M 51,0 46,-3 V 3 Z"
           id="path11459" />
        <path
           style="color:#000000;stroke:none;stroke-linejoin:round;-inkscape-stroke:none"
           d="M 45.261719,-4.3046875 A 1.50015,1.50015 0 0 0 44.5,-3 v 6 a 1.50015,1.50015 0 0 0 2.271484,1.2871094 l 5,-3 a 1.50015,1.50015 0 0 0 0,-2.5742188 l -5,-3 a 1.50015,1.50015 0 0 0 -1.509765,-0.017578 z M 47.5,-0.34960938 48.083984,0 47.5,0.34960938 Z"
           id="path11461" />
      </g>
      <g
         id="use12"
         transform="rotate(45)">
        <path
           style="color:#000000;stroke:none;stroke-width:3;stroke-linejoin:round;-inkscape-stroke:none"
           d="M 51,0 46,-3 V 3 Z"
           id="path11465" />
        <path
           style="color:#000000;stroke:none;stroke-linejoin:round;-inkscape-stroke:none"
           d="M 45.261719,-4.3046875 A 1.50015,1.50015 0 0 0 44.5,-3 v 6 a 1.50015,1.50015 0 0 0 2.271484,1.2871094 l 5,-3 a 1.50015,1.50015 0 0 0 0,-2.5742188 l -5,-3 a 1.50015,1.50015 0 0 0 -1.509765,-0.017578 z M 47.5,-0.34960938 48.083984,0 47.5,0.34960938 Z"
           id="path11467" />
      </g>
      <g
         id="use14"
         transform="rotate(56.25)">
        <path
           style="color:#000000;stroke:none;stroke-width:3;stroke-linejoin:round;-inkscape-stroke:none"
           d="M 51,0 46,-3 V 3 Z"
           id="path11471" />
        <path
           style="color:#000000;stroke:none;stroke-linejoin:round;-inkscape-stroke:none"
           d="M 45.261719,-4.3046875 A 1.50015,1.50015 0 0 0 44.5,-3 v 6 a 1.50015,1.50015 0 0 0 2.271484,1.2871094 l 5,-3 a 1.50015,1.50015 0 0 0 0,-2.5742188 l -5,-3 a 1.50015,1.50015 0 0 0 -1.509765,-0.017578 z M 47.5,-0.34960938 48.083984,0 47.5,0.34960938 Z"
           id="path11473" />
      </g>
      <g
         id="use16"
         transform="rotate(67.5)">
        <path
           style="color:#000000;stroke:none;stroke-width:3;stroke-linejoin:round;-inkscape-stroke:none"
           d="M 51,0 46,-3 V 3 Z"
           id="path11477" />
        <path
           style="color:#000000;stroke:none;stroke-linejoin:round;-inkscape-stroke:none"
           d="M 45.261719,-4.3046875 A 1.50015,1.50015 0 0 0 44.5,-3 v 6 a 1.50015,1.50015 0 0 0 2.271484,1.2871094 l 5,-3 a 1.50015,1.50015 0 0 0 0,-2.5742188 l -5,-3 a 1.50015,1.50015 0 0 0 -1.509765,-0.017578 z M 47.5,-0.34960938 48.083984,0 47.5,0.34960938 Z"
           id="path11479" />
      </g>
      <g
         id="use18"
         transform="rotate(78.75)">
        <path
           style="color:#000000;stroke:none;stroke-width:3;stroke-linejoin:round;-inkscape-stroke:none"
           d="M 51,0 46,-3 V 3 Z"
           id="path11483" />
        <path
           style="color:#000000;stroke:none;stroke-linejoin:round;-inkscape-stroke:none"
           d="M 45.261719,-4.3046875 A 1.50015,1.50015 0 0 0 44.5,-3 v 6 a 1.50015,1.50015 0 0 0 2.271484,1.2871094 l 5,-3 a 1.50015,1.50015 0 0 0 0,-2.5742188 l -5,-3 a 1.50015,1.50015 0 0 0 -1.509765,-0.017578 z M 47.5,-0.34960938 48.083984,0 47.5,0.34960938 Z"
           id="path11485" />
      </g>
      <g
         id="use20"
         transform="rotate(90)">
        <path
           style="color:#000000;stroke:none;stroke-width:3;stroke-linejoin:round;-inkscape-stroke:none"
           d="M 51,0 46,-3 V 3 Z"
           id="path11489" />
        <path
           style="color:#000000;stroke:none;stroke-linejoin:round;-inkscape-stroke:none"
           d="M 45.261719,-4.3046875 A 1.50015,1.50015 0 0 0 44.5,-3 v 6 a 1.50015,1.50015 0 0 0 2.271484,1.2871094 l 5,-3 a 1.50015,1.50015 0 0 0 0,-2.5742188 l -5,-3 a 1.50015,1.50015 0 0 0 -1.509765,-0.017578 z M 47.5,-0.34960938 48.083984,0 47.5,0.34960938 Z"
           id="path11491" />
      </g>
      <g
         id="use22"
         transform="rotate(101.25)">
        <path
           style="color:#000000;stroke:none;stroke-width:3;stroke-linejoin:round;-inkscape-stroke:none"
           d="M 51,0 46,-3 V 3 Z"
           id="path11495" />
        <path
           style="color:#000000;stroke:none;stroke-linejoin:round;-inkscape-stroke:none"
           d="M 45.261719,-4.3046875 A 1.50015,1.50015 0 0 0 44.5,-3 v 6 a 1.50015,1.50015 0 0 0 2.271484,1.2871094 l 5,-3 a 1.50015,1.50015 0 0 0 0,-2.5742188 l -5,-3 a 1.50015,1.50015 0 0 0 -1.509765,-0.017578 z M 47.5,-0.34960938 48.083984,0 47.5,0.34960938 Z"
           id="path11497" />
      </g>
      <g
         id="use24"
         transform="rotate(112.5)">
        <path
           style="color:#000000;stroke:none;stroke-width:3;stroke-linejoin:round;-inkscape-stroke:none"
           d="M 51,0 46,-3 V 3 Z"
           id="path11501" />
        <path
           style="color:#000000;stroke:none;stroke-linejoin:round;-inkscape-stroke:none"
           d="M 45.261719,-4.3046875 A 1.50015,1.50015 0 0 0 44.5,-3 v 6 a 1.50015,1.50015 0 0 0 2.271484,1.2871094 l 5,-3 a 1.50015,1.50015 0 0 0 0,-2.5742188 l -5,-3 a 1.50015,1.50015 0 0 0 -1.509765,-0.017578 z M 47.5,-0.34960938 48.083984,0 47.5,0.34960938 Z"
           id="path11503" />
      </g>
      <g
         id="use26"
         transform="rotate(123.75)">
        <path
           style="color:#000000;stroke:none;stroke-width:3;stroke-linejoin:round;-inkscape-stroke:none"
           d="M 51,0 46,-3 V 3 Z"
           id="path11507" />
        <path
           style="color:#000000;stroke:none;stroke-linejoin:round;-inkscape-stroke:none"
           d="M 45.261719,-4.3046875 A 1.50015,1.50015 0 0 0 44.5,-3 v 6 a 1.50015,1.50015 0 0 0 2.271484,1.2871094 l 5,-3 a 1.50015,1.50015 0 0 0 0,-2.5742188 l -5,-3 a 1.50015,1.50015 0 0 0 -1.509765,-0.017578 z M 47.5,-0.34960938 48.083984,0 47.5,0.34960938 Z"
           id="path11509" />
      </g>
      <g
         id="use28"
         transform="rotate(135)">
        <path
           style="color:#000000;stroke:none;stroke-width:3;stroke-linejoin:round;-inkscape-stroke:none"
           d="M 51,0 46,-3 V 3 Z"
           id="path11513" />
        <path
           style="color:#000000;stroke:none;stroke-linejoin:round;-inkscape-stroke:none"
           d="M 45.261719,-4.3046875 A 1.50015,1.50015 0 0 0 44.5,-3 v 6 a 1.50015,1.50015 0 0 0 2.271484,1.2871094 l 5,-3 a 1.50015,1.50015 0 0 0 0,-2.5742188 l -5,-3 a 1.50015,1.50015 0 0 0 -1.509765,-0.017578 z M 47.5,-0.34960938 48.083984,0 47.5,0.34960938 Z"
           id="path11515" />
      </g>
      <g
         id="use30"
         transform="rotate(146.25)">
        <path
           style="color:#000000;stroke:none;stroke-width:3;stroke-linejoin:round;-inkscape-stroke:none"
           d="M 51,0 46,-3 V 3 Z"
           id="path11519" />
        <path
           style="color:#000000;stroke:none;stroke-linejoin:round;-inkscape-stroke:none"
           d="M 45.261719,-4.3046875 A 1.50015,1.50015 0 0 0 44.5,-3 v 6 a 1.50015,1.50015 0 0 0 2.271484,1.2871094 l 5,-3 a 1.50015,1.50015 0 0 0 0,-2.5742188 l -5,-3 a 1.50015,1.50015 0 0 0 -1.509765,-0.017578 z M 47.5,-0.34960938 48.083984,0 47.5,0.34960938 Z"
           id="path11521" />
      </g>
      <g
         id="use32"
         transform="rotate(157.5)">
        <path
           style="color:#000000;stroke:none;stroke-width:3;stroke-linejoin:round;-inkscape-stroke:none"
           d="M 51,0 46,-3 V 3 Z"
           id="path11525" />
        <path
           style="color:#000000;stroke:none;stroke-linejoin:round;-inkscape-stroke:none"
           d="M 45.261719,-4.3046875 A 1.50015,1.50015 0 0 0 44.5,-3 v 6 a 1.50015,1.50015 0 0 0 2.271484,1.2871094 l 5,-3 a 1.50015,1.50015 0 0 0 0,-2.5742188 l -5,-3 a 1.50015,1.50015 0 0 0 -1.509765,-0.017578 z M 47.5,-0.34960938 48.083984,0 47.5,0.34960938 Z"
           id="path11527" />
      </g>
      <g
         id="use34"
         transform="rotate(168.75)">
        <path
           style="color:#000000;stroke:none;stroke-width:3;stroke-linejoin:round;-inkscape-stroke:none"
           d="M 51,0 46,-3 V 3 Z"
           id="path11531" />
        <path
           style="color:#000000;stroke:none;stroke-linejoin:round;-inkscape-stroke:none"
           d="M 45.261719,-4.3046875 A 1.50015,1.50015 0 0 0 44.5,-3 v 6 a 1.50015,1.50015 0 0 0 2.271484,1.2871094 l 5,-3 a 1.50015,1.50015 0 0 0 0,-2.5742188 l -5,-3 a 1.50015,1.50015 0 0 0 -1.509765,-0.017578 z M 47.5,-0.34960938 48.083984,0 47.5,0.34960938 Z"
           id="path11533" />
      </g>
      <g
         id="use36"
         transform="scale(-1)">
        <path
           style="color:#000000;stroke:none;stroke-width:3;stroke-linejoin:round;-inkscape-stroke:none"
           d="M 51,0 46,-3 V 3 Z"
           id="path11537" />
        <path
           style="color:#000000;stroke:none;stroke-linejoin:round;-inkscape-stroke:none"
           d="M 45.261719,-4.3046875 A 1.50015,1.50015 0 0 0 44.5,-3 v 6 a 1.50015,1.50015 0 0 0 2.271484,1.2871094 l 5,-3 a 1.50015,1.50015 0 0 0 0,-2.5742188 l -5,-3 a 1.50015,1.50015 0 0 0 -1.509765,-0.017578 z M 47.5,-0.34960938 48.083984,0 47.5,0.34960938 Z"
           id="path11539" />
      </g>
      <g
         id="use38"
         transform="rotate(-168.75)">
        <path
           style="color:#000000;stroke:none;stroke-width:3;stroke-linejoin:round;-inkscape-stroke:none"
           d="M 51,0 46,-3 V 3 Z"
           id="path11543" />
        <path
           style="color:#000000;stroke:none;stroke-linejoin:round;-inkscape-stroke:none"
           d="M 45.261719,-4.3046875 A 1.50015,1.50015 0 0 0 44.5,-3 v 6 a 1.50015,1.50015 0 0 0 2.271484,1.2871094 l 5,-3 a 1.50015,1.50015 0 0 0 0,-2.5742188 l -5,-3 a 1.50015,1.50015 0 0 0 -1.509765,-0.017578 z M 47.5,-0.34960938 48.083984,0 47.5,0.34960938 Z"
           id="path11545" />
      </g>
      <g
         id="use40"
         transform="rotate(-157.5)">
        <path
           style="color:#000000;stroke:none;stroke-width:3;stroke-linejoin:round;-inkscape-stroke:none"
           d="M 51,0 46,-3 V 3 Z"
           id="path11549" />
        <path
           style="color:#000000;stroke:none;stroke-linejoin:round;-inkscape-stroke:none"
           d="M 45.261719,-4.3046875 A 1.50015,1.50015 0 0 0 44.5,-3 v 6 a 1.50015,1.50015 0 0 0 2.271484,1.2871094 l 5,-3 a 1.50015,1.50015 0 0 0 0,-2.5742188 l -5,-3 a 1.50015,1.50015 0 0 0 -1.509765,-0.017578 z M 47.5,-0.34960938 48.083984,0 47.5,0.34960938 Z"
           id="path11551" />
      </g>
      <g
         id="use42"
         transform="rotate(-146.25)">
        <path
           style="color:#000000;stroke:none;stroke-width:3;stroke-linejoin:round;-inkscape-stroke:none"
           d="M 51,0 46,-3 V 3 Z"
           id="path11555" />
        <path
           style="color:#000000;stroke:none;stroke-linejoin:round;-inkscape-stroke:none"
           d="M 45.261719,-4.3046875 A 1.50015,1.50015 0 0 0 44.5,-3 v 6 a 1.50015,1.50015 0 0 0 2.271484,1.2871094 l 5,-3 a 1.50015,1.50015 0 0 0 0,-2.5742188 l -5,-3 a 1.50015,1.50015 0 0 0 -1.509765,-0.017578 z M 47.5,-0.34960938 48.083984,0 47.5,0.34960938 Z"
           id="path11557" />
      </g>
      <g
         id="use44"
         transform="rotate(-135)">
        <path
           style="color:#000000;stroke:none;stroke-width:3;stroke-linejoin:round;-inkscape-stroke:none"
           d="M 51,0 46,-3 V 3 Z"
           id="path11561" />
        <path
           style="color:#000000;stroke:none;stroke-linejoin:round;-inkscape-stroke:none"
           d="M 45.261719,-4.3046875 A 1.50015,1.50015 0 0 0 44.5,-3 v 6 a 1.50015,1.50015 0 0 0 2.271484,1.2871094 l 5,-3 a 1.50015,1.50015 0 0 0 0,-2.5742188 l -5,-3 a 1.50015,1.50015 0 0 0 -1.509765,-0.017578 z M 47.5,-0.34960938 48.083984,0 47.5,0.34960938 Z"
           id="path11563" />
      </g>
      <g
         id="use46"
         transform="rotate(-123.75)">
        <path
           style="color:#000000;stroke:none;stroke-width:3;stroke-linejoin:round;-inkscape-stroke:none"
           d="M 51,0 46,-3 V 3 Z"
           id="path11567" />
        <path
           style="color:#000000;stroke:none;stroke-linejoin:round;-inkscape-stroke:none"
           d="M 45.261719,-4.3046875 A 1.50015,1.50015 0 0 0 44.5,-3 v 6 a 1.50015,1.50015 0 0 0 2.271484,1.2871094 l 5,-3 a 1.50015,1.50015 0 0 0 0,-2.5742188 l -5,-3 a 1.50015,1.50015 0 0 0 -1.509765,-0.017578 z M 47.5,-0.34960938 48.083984,0 47.5,0.34960938 Z"
           id="path11569" />
      </g>
      <g
         id="use48"
         transform="rotate(-112.5)">
        <path
           style="color:#000000;stroke:none;stroke-width:3;stroke-linejoin:round;-inkscape-stroke:none"
           d="M 51,0 46,-3 V 3 Z"
           id="path11573" />
        <path
           style="color:#000000;stroke:none;stroke-linejoin:round;-inkscape-stroke:none"
           d="M 45.261719,-4.3046875 A 1.50015,1.50015 0 0 0 44.5,-3 v 6 a 1.50015,1.50015 0 0 0 2.271484,1.2871094 l 5,-3 a 1.50015,1.50015 0 0 0 0,-2.5742188 l -5,-3 a 1.50015,1.50015 0 0 0 -1.509765,-0.017578 z M 47.5,-0.34960938 48.083984,0 47.5,0.34960938 Z"
           id="path11575" />
      </g>
      <g
         id="use50"
         transform="rotate(-101.25)">
        <path
           style="color:#000000;stroke:none;stroke-width:3;stroke-linejoin:round;-inkscape-stroke:none"
           d="M 51,0 46,-3 V 3 Z"
           id="path11579" />
        <path
           style="color:#000000;stroke:none;stroke-linejoin:round;-inkscape-stroke:none"
           d="M 45.261719,-4.3046875 A 1.50015,1.50015 0 0 0 44.5,-3 v 6 a 1.50015,1.50015 0 0 0 2.271484,1.2871094 l 5,-3 a 1.50015,1.50015 0 0 0 0,-2.5742188 l -5,-3 a 1.50015,1.50015 0 0 0 -1.509765,-0.017578 z M 47.5,-0.34960938 48.083984,0 47.5,0.34960938 Z"
           id="path11581" />
      </g>
      <g
         id="use52"
         transform="rotate(-90)">
        <path
           style="color:#000000;stroke:none;stroke-width:3;stroke-linejoin:round;-inkscape-stroke:none"
           d="M 51,0 46,-3 V 3 Z"
           id="path11585" />
        <path
           style="color:#000000;stroke:none;stroke-linejoin:round;-inkscape-stroke:none"
           d="M 45.261719,-4.3046875 A 1.50015,1.50015 0 0 0 44.5,-3 v 6 a 1.50015,1.50015 0 0 0 2.271484,1.2871094 l 5,-3 a 1.50015,1.50015 0 0 0 0,-2.5742188 l -5,-3 a 1.50015,1.50015 0 0 0 -1.509765,-0.017578 z M 47.5,-0.34960938 48.083984,0 47.5,0.34960938 Z"
           id="path11587" />
      </g>
      <g
         id="use54"
         transform="rotate(-78.75)">
        <path
           style="color:#000000;stroke:none;stroke-width:3;stroke-linejoin:round;-inkscape-stroke:none"
           d="M 51,0 46,-3 V 3 Z"
           id="path11591" />
        <path
           style="color:#000000;stroke:none;stroke-linejoin:round;-inkscape-stroke:none"
           d="M 45.261719,-4.3046875 A 1.50015,1.50015 0 0 0 44.5,-3 v 6 a 1.50015,1.50015 0 0 0 2.271484,1.2871094 l 5,-3 a 1.50015,1.50015 0 0 0 0,-2.5742188 l -5,-3 a 1.50015,1.50015 0 0 0 -1.509765,-0.017578 z M 47.5,-0.34960938 48.083984,0 47.5,0.34960938 Z"
           id="path11593" />
      </g>
      <g
         id="use56"
         transform="rotate(-67.5)">
        <path
           style="color:#000000;stroke:none;stroke-width:3;stroke-linejoin:round;-inkscape-stroke:none"
           d="M 51,0 46,-3 V 3 Z"
           id="path11597" />
        <path
           style="color:#000000;stroke:none;stroke-linejoin:round;-inkscape-stroke:none"
           d="M 45.261719,-4.3046875 A 1.50015,1.50015 0 0 0 44.5,-3 v 6 a 1.50015,1.50015 0 0 0 2.271484,1.2871094 l 5,-3 a 1.50015,1.50015 0 0 0 0,-2.5742188 l -5,-3 a 1.50015,1.50015 0 0 0 -1.509765,-0.017578 z M 47.5,-0.34960938 48.083984,0 47.5,0.34960938 Z"
           id="path11599" />
      </g>
      <g
         id="use58"
         transform="rotate(-56.25)">
        <path
           style="color:#000000;stroke:none;stroke-width:3;stroke-linejoin:round;-inkscape-stroke:none"
           d="M 51,0 46,-3 V 3 Z"
           id="path11603" />
        <path
           style="color:#000000;stroke:none;stroke-linejoin:round;-inkscape-stroke:none"
           d="M 45.261719,-4.3046875 A 1.50015,1.50015 0 0 0 44.5,-3 v 6 a 1.50015,1.50015 0 0 0 2.271484,1.2871094 l 5,-3 a 1.50015,1.50015 0 0 0 0,-2.5742188 l -5,-3 a 1.50015,1.50015 0 0 0 -1.509765,-0.017578 z M 47.5,-0.34960938 48.083984,0 47.5,0.34960938 Z"
           id="path11605" />
      </g>
      <g
         id="use60"
         transform="rotate(-45)">
        <path
           style="color:#000000;stroke:none;stroke-width:3;stroke-linejoin:round;-inkscape-stroke:none"
           d="M 51,0 46,-3 V 3 Z"
           id="path11609" />
        <path
           style="color:#000000;stroke:none;stroke-linejoin:round;-inkscape-stroke:none"
           d="M 45.261719,-4.3046875 A 1.50015,1.50015 0 0 0 44.5,-3 v 6 a 1.50015,1.50015 0 0 0 2.271484,1.2871094 l 5,-3 a 1.50015,1.50015 0 0 0 0,-2.5742188 l -5,-3 a 1.50015,1.50015 0 0 0 -1.509765,-0.017578 z M 47.5,-0.34960938 48.083984,0 47.5,0.34960938 Z"
           id="path11611" />
      </g>
      <g
         id="use62"
         transform="rotate(-33.75)">
        <path
           style="color:#000000;stroke:none;stroke-width:3;stroke-linejoin:round;-inkscape-stroke:none"
           d="M 51,0 46,-3 V 3 Z"
           id="path11615" />
        <path
           style="color:#000000;stroke:none;stroke-linejoin:round;-inkscape-stroke:none"
           d="M 45.261719,-4.3046875 A 1.50015,1.50015 0 0 0 44.5,-3 v 6 a 1.50015,1.50015 0 0 0 2.271484,1.2871094 l 5,-3 a 1.50015,1.50015 0 0 0 0,-2.5742188 l -5,-3 a 1.50015,1.50015 0 0 0 -1.509765,-0.017578 z M 47.5,-0.34960938 48.083984,0 47.5,0.34960938 Z"
           id="path11617" />
      </g>
      <g
         id="use64"
         transform="rotate(-22.5)">
        <path
           style="color:#000000;stroke:none;stroke-width:3;stroke-linejoin:round;-inkscape-stroke:none"
           d="M 51,0 46,-3 V 3 Z"
           id="path11621" />
        <path
           style="color:#000000;stroke:none;stroke-linejoin:round;-inkscape-stroke:none"
           d="M 45.261719,-4.3046875 A 1.50015,1.50015 0 0 0 44.5,-3 v 6 a 1.50015,1.50015 0 0 0 2.271484,1.2871094 l 5,-3 a 1.50015,1.50015 0 0 0 0,-2.5742188 l -5,-3 a 1.50015,1.50015 0 0 0 -1.509765,-0.017578 z M 47.5,-0.34960938 48.083984,0 47.5,0.34960938 Z"
           id="path11623" />
      </g>
      <g
         id="use66"
         transform="rotate(-11.25)">
        <path
           style="color:#000000;stroke:none;stroke-width:3;stroke-linejoin:round;-inkscape-stroke:none"
           d="M 51,0 46,-3 V 3 Z"
           id="path11627" />
        <path
           style="color:#000000;stroke:none;stroke-linejoin:round;-inkscape-stroke:none"
           d="M 45.261719,-4.3046875 A 1.50015,1.50015 0 0 0 44.5,-3 v 6 a 1.50015,1.50015 0 0 0 2.271484,1.2871094 l 5,-3 a 1.50015,1.50015 0 0 0 0,-2.5742188 l -5,-3 a 1.50015,1.50015 0 0 0 -1.509765,-0.017578 z M 47.5,-0.34960938 48.083984,0 47.5,0.34960938 Z"
           id="path11629" />
      </g>
    </g>
    <g
       id="mounts"
       transform="translate(53,53)"
       mask="url(#mask2328)"
       style="stroke:#ffffff">
      <g
         id="mount">
        <path
           style="color:#000000;fill:#000000;stroke:none;stroke-width:6;stroke-linejoin:round;-inkscape-stroke:none"
           d="M 7,-42 H -7 l 7,7 z"
           id="path11633" />
        <path
           style="color:#000000;fill:#ffffff;stroke:none;stroke-linejoin:round;-inkscape-stroke:none"
           d="m -7,-45 a 3.0003,3.0003 0 0 0 -2.1210938,5.121094 l 7,7 a 3.0003,3.0003 0 0 0 4.2421876,0 l 7,-7 A 3.0003,3.0003 0 0 0 7,-45 Z"
           id="path11635" />
      </g>
      <g
         id="use70"
         transform="rotate(72)">
        <path
           style="color:#000000;fill:#000000;stroke:none;stroke-width:6;stroke-linejoin:round;-inkscape-stroke:none"
           d="m 0,-35 7,-7 H -7 Z"
           id="path11639" />
        <path
           style="color:#000000;fill:#ffffff;stroke:none;stroke-linejoin:round;-inkscape-stroke:none"
           d="m -7,-45 a 3.0003,3.0003 0 0 0 -2.1210938,5.121094 l 7,7 a 3.0003,3.0003 0 0 0 4.2421876,0 l 7,-7 A 3.0003,3.0003 0 0 0 7,-45 Z"
           id="path11641" />
      </g>
      <g
         id="use72"
         transform="rotate(144)">
        <path
           style="color:#000000;fill:#000000;stroke:none;stroke-width:6;stroke-linejoin:round;-inkscape-stroke:none"
           d="m 0,-35 7,-7 H -7 Z"
           id="path11645" />
        <path
           style="color:#000000;fill:#ffffff;stroke:none;stroke-linejoin:round;-inkscape-stroke:none"
           d="m -7,-45 a 3.0003,3.0003 0 0 0 -2.1210938,5.121094 l 7,7 a 3.0003,3.0003 0 0 0 4.2421876,0 l 7,-7 A 3.0003,3.0003 0 0 0 7,-45 Z"
           id="path11647" />
      </g>
      <g
         id="use74"
         transform="rotate(-144)">
        <path
           style="color:#000000;fill:#000000;stroke:none;stroke-width:6;stroke-linejoin:round;-inkscape-stroke:none"
           d="m 0,-35 7,-7 H -7 Z"
           id="path11651" />
        <path
           style="color:#000000;fill:#ffffff;stroke:none;stroke-linejoin:round;-inkscape-stroke:none"
           d="m -7,-45 a 3.0003,3.0003 0 0 0 -2.1210938,5.121094 l 7,7 a 3.0003,3.0003 0 0 0 4.2421876,0 l 7,-7 A 3.0003,3.0003 0 0 0 7,-45 Z"
           id="path11653" />
      </g>
      <g
         id="use76"
         transform="rotate(-72)">
        <path
           style="color:#000000;fill:#000000;stroke:none;stroke-width:6;stroke-linejoin:round;-inkscape-stroke:none"
           d="m 0,-35 7,-7 H -7 Z"
           id="path11657" />
        <path
           style="color:#000000;fill:#ffffff;stroke:none;stroke-linejoin:round;-inkscape-stroke:none"
           d="m -7,-45 a 3.0003,3.0003 0 0 0 -2.1210938,5.121094 l 7,7 a 3.0003,3.0003 0 0 0 4.2421876,0 l 7,-7 A 3.0003,3.0003 0 0 0 7,-45 Z"
           id="path11659" />
      </g>
    </g>
  </g>
</svg>
