<?xml version="1.0" encoding="UTF-8" standalone="no"?>
<svg
   viewBox="0 0 121.51 121.508"
   version="1.1"
   id="svg4"
   sodipodi:docname="ubuntu-plain.svg"
   width="121.51"
   height="121.508"
   inkscape:version="1.2.2 (b0a8486541, 2022-12-01)"
   xmlns:inkscape="http://www.inkscape.org/namespaces/inkscape"
   xmlns:sodipodi="http://sodipodi.sourceforge.net/DTD/sodipodi-0.dtd"
   xmlns="http://www.w3.org/2000/svg"
   xmlns:svg="http://www.w3.org/2000/svg">
  <defs
     id="defs8" />
  <sodipodi:namedview
     id="namedview6"
     pagecolor="#505050"
     bordercolor="#eeeeee"
     borderopacity="1"
     inkscape:showpageshadow="0"
     inkscape:pageopacity="0"
     inkscape:pagecheckerboard="0"
     inkscape:deskcolor="#505050"
     showgrid="false"
     inkscape:zoom="3.6953125"
     inkscape:cx="61.023256"
     inkscape:cy="60.887949"
     inkscape:window-width="1320"
     inkscape:window-height="704"
     inkscape:window-x="0"
     inkscape:window-y="0"
     inkscape:window-maximized="1"
     inkscape:current-layer="svg4" />
  <path
     fill="#dd4814"
     d="M 60.755,0 C 27.2,0 0,27.2 0,60.754 c 0,33.552 27.2,60.754 60.755,60.754 33.554,0 60.755,-27.202 60.755,-60.754 C 121.51,27.2 94.31,0 60.755,0 Z M 74.386,20.922 A 8.1090964,8.1090964 0 1 1 88.432,29.03 8.105,8.105 0 0 1 77.355,31.997 8.11,8.11 0 0 1 74.386,20.922 Z m -13.631,4.595 c 3.262,0 6.417,0.453 9.414,1.281 a 11.357,11.357 0 0 0 5.548,8.042 11.378,11.378 0 0 0 9.725,0.789 c 5.998,5.898 9.901,13.919 10.47,22.854 l -11.558,0.17 C 83.287,46.55 73.132,37.06 60.755,37.06 a 23.6,23.6 0 0 0 -9.98,2.203 L 45.138,29.164 A 35.116,35.116 0 0 1 60.755,25.517 Z M 19.444,68.866 a 8.112,8.112 0 0 1 -8.113,-8.112 8.111,8.111 0 0 1 8.113,-8.113 8.113,8.113 0 0 1 0,16.225 z m 7.191,0.722 a 11.377,11.377 0 0 0 4.2,-8.834 c 0,-3.565 -1.639,-6.747 -4.2,-8.836 2.194,-8.489 7.475,-15.738 14.571,-20.483 l 5.931,9.934 c -6.092,4.287 -10.074,11.369 -10.074,19.385 0,8.016 3.981,15.098 10.074,19.383 l -5.931,9.937 C 34.107,85.33 28.826,78.079 26.635,69.588 Z m 58.831,33.964 a 8.105,8.105 0 0 1 -11.077,-2.969 c -2.241,-3.877 -0.911,-8.835 2.969,-11.076 3.877,-2.239 8.838,-0.908 11.077,2.969 a 8.106,8.106 0 0 1 -2.969,11.076 z M 85.442,85.879 a 11.357,11.357 0 0 0 -9.725,0.788 11.36,11.36 0 0 0 -5.547,8.042 35.232,35.232 0 0 1 -9.415,1.284 35.097,35.097 0 0 1 -15.616,-3.649 l 5.636,-10.1 a 23.6,23.6 0 0 0 9.98,2.204 c 12.378,0 22.532,-9.488 23.596,-21.592 l 11.561,0.169 C 95.343,71.96 91.44,79.981 85.442,85.879 Z"
     id="path2" />
</svg>
