<?xml version="1.0" encoding="UTF-8" standalone="no"?>
<svg
   viewBox="0 0 110.002 110"
   version="1.1"
   id="svg4"
   sodipodi:docname="ubuntu-plain.svg"
   width="110.002"
   height="110"
   inkscape:version="1.2.2 (b0a8486541, 2022-12-01)"
   xmlns:inkscape="http://www.inkscape.org/namespaces/inkscape"
   xmlns:sodipodi="http://sodipodi.sourceforge.net/DTD/sodipodi-0.dtd"
   xmlns="http://www.w3.org/2000/svg"
   xmlns:svg="http://www.w3.org/2000/svg">
  <defs
     id="defs8" />
  <sodipodi:namedview
     id="namedview6"
     pagecolor="#505050"
     bordercolor="#eeeeee"
     borderopacity="1"
     inkscape:showpageshadow="0"
     inkscape:pageopacity="0"
     inkscape:pagecheckerboard="0"
     inkscape:deskcolor="#505050"
     showgrid="false"
     inkscape:zoom="3.6953125"
     inkscape:cx="39.915433"
     inkscape:cy="61.158562"
     inkscape:window-width="1320"
     inkscape:window-height="704"
     inkscape:window-x="0"
     inkscape:window-y="0"
     inkscape:window-maximized="1"
     inkscape:current-layer="svg4" />
  <path
     fill="#dd4814"
     d="M 50.000823,0 C 22.385357,0 0,22.385357 0,50 c 0,27.612997 22.385357,50 50.000823,50 27.614643,0 50.000827,-22.387003 50.000827,-50 0,-27.614643 -22.385361,-50 -50.000827,-50 z m 11.218191,17.218619 a 6.6737142,6.6737142 0 1 1 11.559733,6.672812 6.6703427,6.6703427 0 0 1 -9.116272,2.441815 6.6744576,6.6744576 0 0 1 -2.443461,-9.114627 z m -11.218191,3.781644 c 2.684597,0 5.281134,0.372815 7.747638,1.054252 a 9.3467097,9.3467097 0 0 0 4.565955,6.618494 9.3639925,9.3639925 0 0 0 8.003588,0.64934 c 4.9363,4.854002 8.148434,11.455213 8.616716,18.808638 l -9.512131,0.139909 C 68.544458,38.310235 60.186984,30.500049 50.000823,30.500049 a 19.422589,19.422589 0 0 0 -8.213451,1.81305 L 37.148171,24.001712 A 28.900155,28.900155 0 0 1 50.000823,21.000263 Z M 16.002239,56.676104 A 6.6761036,6.6761036 0 0 1 9.3253119,50 a 6.6752806,6.6752806 0 0 1 6.6769271,-6.676927 6.6769266,6.6769266 0 0 1 0,13.353031 z m 5.918128,0.594199 A 9.3631695,9.3631695 0 0 0 25.37693,50 c 0,-2.933963 -1.348882,-5.552721 -3.456563,-7.271949 C 23.72601,35.74168 28.072226,29.775817 33.91217,25.870725 l 4.88116,8.175593 C 33.779669,37.574481 30.502518,43.402904 30.502518,50 c 0,6.597096 3.276328,12.425519 8.290812,15.952036 l -4.88116,8.178062 C 28.069757,70.225829 23.723541,64.25832 21.920367,57.270303 Z m 48.417389,27.952069 a 6.6703427,6.6703427 0 0 1 -9.116273,-2.44346 c -1.844323,-3.190737 -0.749745,-7.271127 2.443461,-9.11545 3.190736,-1.842677 7.273595,-0.747275 9.116272,2.443461 a 6.6711657,6.6711657 0 0 1 -2.44346,9.115449 z m -0.01975,-14.544721 a 9.3467097,9.3467097 0 0 0 -8.003588,0.648517 9.3491787,9.3491787 0 0 0 -4.565132,6.618494 28.995622,28.995622 0 0 1 -7.748461,1.056721 28.884518,28.884518 0 0 1 -12.851829,-3.003095 l 4.638378,-8.31221 a 19.422589,19.422589 0 0 0 8.213451,1.813873 c 10.186984,0 18.543635,-7.80854 19.419297,-17.770024 l 9.5146,0.139086 c -0.468282,7.353425 -3.680416,13.954636 -8.616716,18.808638 z"
     id="path2"
     style="stroke-width:0.822991" />
</svg>
